<svg width="24" height="25" viewBox="0 0 24 25" fill="none" xmlns="http://www.w3.org/2000/svg">
  <g clip-path="url(#clip0_1303_3495)">
    <path
      d="M7 0.5H4C2.93913 0.5 1.92172 0.921427 1.17157 1.67157C0.421427 2.42172 0 3.43913 0 4.5L0 7.5C0 8.56087 0.421427 9.57828 1.17157 10.3284C1.92172 11.0786 2.93913 11.5 4 11.5H7C8.06087 11.5 9.07828 11.0786 9.82843 10.3284C10.5786 9.57828 11 8.56087 11 7.5V4.5C11 3.43913 10.5786 2.42172 9.82843 1.67157C9.07828 0.921427 8.06087 0.5 7 0.5ZM9 7.5C9 8.03043 8.78929 8.53914 8.41421 8.91421C8.03914 9.28929 7.53043 9.5 7 9.5H4C3.46957 9.5 2.96086 9.28929 2.58579 8.91421C2.21071 8.53914 2 8.03043 2 7.5V4.5C2 3.96957 2.21071 3.46086 2.58579 3.08579C2.96086 2.71071 3.46957 2.5 4 2.5H7C7.53043 2.5 8.03914 2.71071 8.41421 3.08579C8.78929 3.46086 9 3.96957 9 4.5V7.5Z"
      fill="#4D5461" />
    <path
      d="M7 13.5H4C2.93913 13.5 1.92172 13.9214 1.17157 14.6716C0.421427 15.4217 0 16.4391 0 17.5L0 20.5C0 21.5609 0.421427 22.5783 1.17157 23.3284C1.92172 24.0786 2.93913 24.5 4 24.5H7C8.06087 24.5 9.07828 24.0786 9.82843 23.3284C10.5786 22.5783 11 21.5609 11 20.5V17.5C11 16.4391 10.5786 15.4217 9.82843 14.6716C9.07828 13.9214 8.06087 13.5 7 13.5ZM9 20.5C9 21.0304 8.78929 21.5391 8.41421 21.9142C8.03914 22.2893 7.53043 22.5 7 22.5H4C3.46957 22.5 2.96086 22.2893 2.58579 21.9142C2.21071 21.5391 2 21.0304 2 20.5V17.5C2 16.9696 2.21071 16.4609 2.58579 16.0858C2.96086 15.7107 3.46957 15.5 4 15.5H7C7.53043 15.5 8.03914 15.7107 8.41421 16.0858C8.78929 16.4609 9 16.9696 9 17.5V20.5Z"
      fill="#4D5461" />
    <path
      d="M22.293 19.549L20 21.839V3.13297L22.293 5.42297C22.3859 5.51581 22.4962 5.58945 22.6175 5.63967C22.7389 5.68989 22.869 5.71572 23.0003 5.71567C23.1317 5.71562 23.2617 5.68971 23.383 5.6394C23.5044 5.58909 23.6146 5.51538 23.7075 5.42247C23.8003 5.32956 23.8739 5.21927 23.9242 5.0979C23.9744 4.97653 24.0002 4.84646 24.0002 4.71511C24.0001 4.58377 23.9742 4.45371 23.9239 4.33238C23.8736 4.21105 23.7999 4.10081 23.707 4.00797L21.12 1.42497C20.5575 0.863166 19.795 0.547607 19 0.547607C18.205 0.547607 17.4425 0.863166 16.88 1.42497L14.293 4.00797C14.2 4.10081 14.1263 4.21105 14.076 4.33238C14.0257 4.45371 13.9998 4.58377 13.9998 4.71511C13.9997 4.84646 14.0255 4.97653 14.0758 5.0979C14.126 5.21927 14.1996 5.32956 14.2925 5.42247C14.3853 5.51538 14.4955 5.58909 14.6169 5.6394C14.7382 5.68971 14.8683 5.71562 14.9996 5.71567C15.131 5.71572 15.261 5.68989 15.3824 5.63967C15.5038 5.58945 15.614 5.51581 15.707 5.42297L18 3.13297V21.839L15.707 19.549C15.614 19.4561 15.5038 19.3825 15.3824 19.3323C15.261 19.282 15.131 19.2562 14.9996 19.2563C14.8683 19.2563 14.7382 19.2822 14.6169 19.3325C14.4955 19.3828 14.3853 19.4566 14.2925 19.5495C14.1996 19.6424 14.126 19.7527 14.0758 19.874C14.0255 19.9954 13.9997 20.1255 13.9998 20.2568C13.9998 20.3882 14.0257 20.5182 14.076 20.6396C14.1263 20.7609 14.2 20.8711 14.293 20.964L16.88 23.547C17.4425 24.1088 18.205 24.4243 19 24.4243C19.795 24.4243 20.5575 24.1088 21.12 23.547L23.707 20.964C23.7999 20.8711 23.8736 20.7609 23.9239 20.6396C23.9742 20.5182 24.0001 20.3882 24.0002 20.2568C24.0002 20.1255 23.9744 19.9954 23.9242 19.874C23.8739 19.7527 23.8003 19.6424 23.7075 19.5495C23.6146 19.4566 23.5044 19.3828 23.383 19.3325C23.2617 19.2822 23.1317 19.2563 23.0003 19.2563C22.869 19.2562 22.7389 19.282 22.6175 19.3323C22.4962 19.3825 22.3859 19.4561 22.293 19.549Z"
      fill="#4D5461" />
  </g>
  <defs>
    <clipPath id="clip0_1303_3495">
      <rect width="24" height="24" fill="white" transform="translate(0 0.5)" />
    </clipPath>
  </defs>
</svg>