<svg width="24" height="25" viewBox="0 0 24 25" fill="none" xmlns="http://www.w3.org/2000/svg">
<g clip-path="url(#clip0_667_143)">
<path d="M12.0001 12.5C12.7912 12.5 13.5645 12.2654 14.2223 11.8259C14.8801 11.3864 15.3928 10.7616 15.6956 10.0307C15.9983 9.29983 16.0775 8.49556 15.9232 7.71964C15.7689 6.94371 15.3879 6.23098 14.8285 5.67157C14.2691 5.11216 13.5563 4.7312 12.7804 4.57686C12.0045 4.42252 11.2002 4.50173 10.4693 4.80448C9.73842 5.10723 9.1137 5.61992 8.67418 6.27772C8.23465 6.93552 8.00006 7.70887 8.00006 8.5C8.00006 9.56087 8.42148 10.5783 9.17163 11.3284C9.92177 12.0786 10.9392 12.5 12.0001 12.5ZM12.0001 6.5C12.3956 6.5 12.7823 6.6173 13.1112 6.83706C13.4401 7.05682 13.6964 7.36918 13.8478 7.73463C13.9992 8.10009 14.0388 8.50222 13.9616 8.89018C13.8845 9.27814 13.694 9.63451 13.4143 9.91421C13.1346 10.1939 12.7782 10.3844 12.3902 10.4616C12.0023 10.5387 11.6001 10.4991 11.2347 10.3478C10.8692 10.1964 10.5569 9.94004 10.3371 9.61114C10.1174 9.28224 10.0001 8.89556 10.0001 8.5C10.0001 7.96957 10.2108 7.46086 10.5858 7.08579C10.9609 6.71071 11.4696 6.5 12.0001 6.5ZM20.6601 9.657L19.9411 9.418C20.0704 8.29792 19.9616 7.16315 19.6217 6.08809C19.2817 5.01302 18.7184 4.02196 17.9686 3.17989C17.2187 2.33782 16.2994 1.66376 15.2708 1.20191C14.2422 0.740067 13.1276 0.500867 12.0001 0.5C10.8578 0.500441 9.72893 0.745694 8.68947 1.21924C7.65001 1.69278 6.72412 2.3836 5.97418 3.24518C5.22424 4.10675 4.66767 5.11905 4.34197 6.21387C4.01627 7.30869 3.929 8.46061 4.08606 9.592C3.12909 9.77043 2.24418 10.2219 1.53806 10.892C1.04923 11.3567 0.660625 11.9166 0.396134 12.537C0.131643 13.1575 -0.00314538 13.8255 5.5707e-05 14.5V18.575C0.0021573 19.6563 0.353848 20.708 1.00265 21.5731C1.65145 22.4381 2.56257 23.0702 3.60006 23.375L6.47006 24.275C6.95212 24.425 7.45419 24.5009 7.95906 24.5C8.41705 24.4994 8.87285 24.4368 9.31406 24.314L15.0941 22.604C15.609 22.4635 16.1521 22.4635 16.6671 22.604L19.0541 23.404C19.6424 23.5472 20.2555 23.555 20.8472 23.4267C21.439 23.2985 21.9939 23.0376 22.4701 22.6637C22.9464 22.2898 23.3315 21.8127 23.5965 21.2683C23.8615 20.7239 23.9995 20.1265 24.0001 19.521V14.372C23.9978 13.3374 23.6756 12.3288 23.0776 11.4845C22.4797 10.6402 21.6352 10.0025 20.6601 9.657ZM7.75806 4.262C8.31431 3.70349 8.97539 3.26032 9.70334 2.95793C10.4313 2.65554 11.2118 2.49988 12.0001 2.49988C12.7883 2.49988 13.5688 2.65554 14.2968 2.95793C15.0247 3.26032 15.6858 3.70349 16.2421 4.262C17.3642 5.39114 17.995 6.91782 17.997 8.50974C17.9991 10.1017 17.3723 11.63 16.2531 12.762L12.7001 16.217C12.5146 16.3988 12.2653 16.5007 12.0056 16.5007C11.7458 16.5007 11.4965 16.3988 11.3111 16.217L7.75806 12.777C6.63353 11.6454 6.00236 10.1148 6.00236 8.5195C6.00236 6.92416 6.63353 5.39361 7.75806 4.262ZM22.0001 19.521C22.0007 19.8239 21.9322 20.1229 21.7998 20.3953C21.6674 20.6677 21.4746 20.9063 21.2361 21.093C21.0107 21.2742 20.7481 21.4035 20.4671 21.4718C20.1861 21.5401 19.8935 21.5456 19.6101 21.488L17.2651 20.7C16.3781 20.4452 15.438 20.4396 14.5481 20.684L8.76406 22.392C8.20833 22.5453 7.62021 22.5352 7.07006 22.363L4.17606 21.463C3.54971 21.2819 2.99901 20.9025 2.60665 20.3817C2.2143 19.861 2.00144 19.227 2.00006 18.575V14.5C1.99781 14.0958 2.07826 13.6954 2.23648 13.3234C2.39469 12.9514 2.62732 12.6157 2.92006 12.337C3.37831 11.9003 3.96207 11.6184 4.58906 11.531C4.99216 12.5302 5.59244 13.4379 6.35406 14.2L9.92106 17.653C10.4786 18.1989 11.2278 18.5046 12.0081 18.5046C12.7883 18.5046 13.5375 18.1989 14.0951 17.653L17.6581 14.19C18.4558 13.389 19.0738 12.4274 19.4711 11.369L20.0081 11.547C20.5904 11.7557 21.0942 12.139 21.4507 12.6445C21.8072 13.1501 21.9991 13.7534 22.0001 14.372V19.521Z" fill="#4D5461"/>
</g>
<defs>
<clipPath id="clip0_667_143">
<rect width="24" height="24" fill="white" transform="translate(0 0.5)"/>
</clipPath>
</defs>
</svg>
