<reference types="vite-plugin-svgr/client" />


<svg width="586" height="593" viewBox="0 0 586 593" fill="none" xmlns="http://www.w3.org/2000/svg">
<path fill-rule="evenodd" clip-rule="evenodd" d="M276.669 466.265C193.927 448.156 83.6818 412.219 101.798 288.914C119.915 165.607 197.574 118.063 293.652 118.063C389.726 118.063 498.882 190.548 477.454 340.707C456.026 490.866 359.412 484.374 276.669 466.265ZM548.638 317.628C552.054 283.317 548.424 249.369 538.672 217.545L566.496 202.641C571.185 200.13 572.949 194.294 570.442 189.605L532.456 118.688C529.941 113.999 524.105 112.235 519.414 114.746L491.592 129.65C470.499 103.904 444.25 82.0719 413.801 65.9035L422.928 35.7043C424.47 30.6134 421.592 25.2394 416.498 23.7004L339.49 0.414643C334.397 -1.12447 329.027 1.75431 327.485 6.84525L318.359 37.0448C284.042 33.629 259.043 46.2034 227.217 55.9495L212.313 28.1255C209.802 23.4372 203.966 21.6728 199.278 24.1838L128.361 62.172C123.672 64.6826 121.907 70.5187 124.419 75.2064L139.323 103.031C113.577 124.123 82.7999 141.427 66.6323 171.882L36.432 162.75C31.3419 161.212 25.9671 164.09 24.4281 169.18L1.14312 246.189C-0.395904 251.28 2.48287 256.654 7.57292 258.194L37.7733 267.325C34.3575 301.635 37.9876 335.584 47.7333 367.407L19.9097 382.312C15.2215 384.823 13.457 390.659 15.968 395.348L53.9557 466.265C56.4673 470.953 62.3034 472.718 66.991 470.206L94.8155 455.302C115.907 481.049 142.156 502.881 172.61 519.049L163.479 549.249C161.94 554.339 164.819 559.713 169.908 561.253L246.919 584.534C252.003 586.076 257.382 583.197 258.924 578.105L268.051 547.908C302.359 551.324 336.311 547.693 368.136 537.947L383.036 565.771C385.551 570.459 391.388 572.22 396.077 569.712L466.995 531.724C471.677 529.214 473.449 523.378 470.934 518.69L456.026 490.866C481.777 469.773 503.605 443.524 519.778 413.07L549.974 422.202C555.067 423.74 560.445 420.863 561.98 415.772L585.262 338.763C586.805 333.673 583.926 328.299 578.833 326.759L548.638 317.628Z" fill="#5B4DFF"/>
<path fill-rule="evenodd" clip-rule="evenodd" d="M399.639 144.494L396.956 144.403L396.881 146.786C396.753 151.073 396.812 155.659 396.877 160.659C396.922 164.144 396.968 167.83 396.956 171.756L396.512 179.508C396.524 186.731 396.575 196.784 396.664 209.667L396.956 246.342C394.984 246.995 393.503 248.697 393.206 250.768C391.58 251.015 390.332 252.395 390.332 254.057C390.332 255.233 390.958 256.267 391.9 256.86L390.753 259.633C390.244 260.865 389.402 261.918 388.321 262.679C383.581 266.013 380.792 271.413 380.858 277.123C380.86 277.275 380.863 277.427 380.869 277.577C380.89 278.125 381.359 278.546 381.919 278.532C382.478 278.512 382.914 278.051 382.894 277.503C382.888 277.369 382.885 277.235 382.883 277.101C382.825 272.037 386.194 267.247 390.397 264.29C391.789 263.311 392.871 261.958 393.525 260.378L393.868 257.386H395.308C395.308 257.386 395.808 260.079 395.808 262.184C395.808 264.289 395.308 268.458 395.308 268.458H393.648C391.747 268.458 390.2 269.973 390.2 271.836C390.2 273.697 391.747 275.212 393.648 275.212H393.886C395.787 275.212 396.439 274.24 396.439 271.836C396.439 270.576 396.578 269.676 398.632 269.676C400.685 269.676 400.157 271.836 400.157 271.836C400.157 273.697 401.703 275.212 403.604 275.212H403.842C405.743 275.212 407.29 273.697 407.29 271.836C407.29 269.973 404.083 268.398 402.183 268.398C402.183 268.398 401.676 264.61 401.676 262.679C401.676 261.052 402.183 257.725 402.183 257.725H400.157C400.157 257.725 400.579 260.831 400.579 262.725C400.579 264.62 400.157 268.398 400.157 268.398C400.157 268.398 399.04 268.6 398.507 268.611C397.975 268.622 397.333 268.458 397.333 268.458C397.333 268.458 396.889 264.585 396.889 262.725C396.889 260.866 397.333 257.386 397.333 257.386H400.157H402.183H403.623L404.86 260.377C405.481 261.88 407.342 263.199 408.76 264.204L408.94 264.331C413.049 267.25 414.608 271.956 414.608 276.92C414.608 281.113 412.928 285.044 409.879 287.988C406.83 290.931 402.793 293.413 398.507 293.352C395.109 293.303 391.635 291.431 388.919 289.401C386.289 287.436 382.883 282.061 382.316 280.82C381.749 279.579 381.482 281.537 381.648 282.061C382.739 285.521 384.971 288.645 387.934 290.858C390.997 293.148 394.644 294.387 398.478 294.441C403.311 294.509 407.863 292.72 411.301 289.401C414.739 286.082 416.634 281.649 416.634 276.92C416.634 271.322 413.867 266.016 409.234 262.725C408.105 261.924 407.242 260.855 406.737 259.633L405.59 256.86C406.532 256.268 407.158 255.233 407.158 254.057C407.158 252.396 405.91 251.015 404.284 250.768C403.949 248.433 402.108 246.567 399.758 246.144H399.628L398.074 212.04C397.981 199.058 399.196 173.111 399.196 173.111C399.218 163.133 399.34 154.385 399.564 146.868L399.639 144.494ZM403.604 273.228C402.82 273.228 402.183 272.603 402.183 271.836V269.676C402.183 269.676 405.264 270.294 405.264 271.836C405.264 273.25 404.727 273.241 404.033 273.23H404.031C403.97 273.229 403.906 273.228 403.842 273.228H403.604ZM391.451 271.836C391.582 273.775 395.605 274.621 395.308 271.836V269.676C395.308 269.676 391.32 269.896 391.451 271.836ZM395.271 250.727C395.643 249.186 397.06 248.037 398.745 248.037C400.43 248.037 401.846 249.187 402.218 250.727H395.271ZM403.759 252.712H403.327H394.163H393.731C392.974 252.712 392.357 253.315 392.357 254.057C392.357 254.799 392.974 255.402 393.731 255.402H403.759C404.517 255.402 405.133 254.799 405.133 254.057C405.133 253.315 404.517 252.712 403.759 252.712ZM421.115 261.349H422.885C423.384 261.349 423.789 260.949 423.789 260.455C423.789 259.96 423.384 259.561 422.885 259.561H421.115C420.616 259.561 420.211 259.96 420.211 260.455C420.211 260.949 420.616 261.349 421.115 261.349ZM419.708 267.681L421.412 268.398C421.892 268.6 422.125 269.173 421.932 269.676C421.74 270.18 421.194 270.424 420.714 270.223L419.01 269.506C418.53 269.303 418.297 268.731 418.49 268.227C418.636 267.844 418.988 267.61 419.36 267.61C419.476 267.61 419.594 267.633 419.708 267.681ZM418.188 253.096L419.784 251.815C420.234 251.454 420.346 250.739 420.035 250.217C419.843 249.895 419.533 249.722 419.219 249.722C419.024 249.722 418.829 249.788 418.656 249.926L417.06 251.207C416.61 251.567 416.498 252.283 416.81 252.805C417.121 253.326 417.738 253.456 418.188 253.096ZM375.481 261.349H373.711C373.211 261.349 372.807 260.949 372.807 260.455C372.807 259.96 373.211 259.561 373.711 259.561H375.481C375.98 259.561 376.385 259.96 376.385 260.455C376.385 260.949 375.98 261.349 375.481 261.349ZM376.887 267.681L375.184 268.398C374.704 268.6 374.471 269.173 374.663 269.676C374.856 270.18 375.401 270.424 375.881 270.223L377.585 269.506C378.065 269.303 378.298 268.731 378.106 268.227C377.959 267.844 377.607 267.61 377.236 267.61C377.12 267.61 377.002 267.633 376.887 267.681ZM378.407 253.096L376.811 251.815C376.362 251.454 376.249 250.739 376.561 250.217C376.753 249.895 377.062 249.722 377.376 249.722C377.571 249.722 377.768 249.788 377.939 249.926L379.535 251.207C379.985 251.567 380.098 252.283 379.786 252.804C379.475 253.326 378.858 253.456 378.407 253.096Z" fill="#4D5461"/>
<path d="M267.507 394.245C277.373 396.841 282.435 403.021 286.71 408.777C290.995 414.531 281.577 411.793 276.38 409.716C271.183 407.639 258.67 399.957 258.67 399.957L217.187 387.41V368.223L229.593 367.498C229.593 367.498 257.633 391.648 267.507 394.245Z" fill="white"/>
<path d="M224.522 253.722C233.395 287.302 237.974 319.432 238.699 350.255C238.699 350.255 247.008 351.293 245.971 358.564C244.933 365.835 223.118 385.568 223.118 385.568L215.56 360.516L212.734 268.202L224.522 253.722Z" fill="white"/>
<path fill-rule="evenodd" clip-rule="evenodd" d="M227.55 270.906L222.455 267.526C222.13 267.311 221.701 267.479 221.583 267.867L219.807 273.768C219.659 274.259 220.1 274.719 220.559 274.552L227.43 272.031C227.899 271.859 227.97 271.184 227.55 270.906ZM226.933 271.881L220.672 273.692L222.536 268.326L226.933 271.881Z" fill="#4D5461"/>
<path fill-rule="evenodd" clip-rule="evenodd" d="M225.314 313.391L220.219 310.011C219.894 309.796 219.464 309.964 219.347 310.352L217.571 316.252C217.422 316.744 217.864 317.204 218.323 317.037L225.194 314.516C225.663 314.344 225.734 313.669 225.314 313.391ZM224.697 314.366L218.436 316.177L220.3 310.811L224.697 314.366Z" fill="#4D5461"/>
<path fill-rule="evenodd" clip-rule="evenodd" d="M222.635 337.259L223.014 331.157C223.039 330.767 222.678 330.479 222.284 330.572L216.285 331.983C215.786 332.102 215.608 332.714 215.982 333.027L221.601 337.718C221.985 338.037 222.604 337.762 222.635 337.259ZM221.481 337.212L216.783 332.695L222.362 331.626L221.481 337.212Z" fill="#4D5461"/>
<path fill-rule="evenodd" clip-rule="evenodd" d="M232.291 332.759L226.189 332.38C225.799 332.355 225.511 332.715 225.604 333.11L227.016 339.108C227.134 339.608 227.747 339.786 228.06 339.412L232.75 333.792C233.069 333.409 232.795 332.79 232.291 332.759ZM232.245 333.912L227.728 338.61L226.659 333.031L232.245 333.912Z" fill="#4D5461"/>
<path fill-rule="evenodd" clip-rule="evenodd" d="M227.58 363.862L222.107 366.585C221.757 366.759 221.688 367.215 221.965 367.51L226.188 371.999C226.539 372.373 227.159 372.221 227.242 371.74L228.494 364.528C228.58 364.037 228.032 363.638 227.58 363.862ZM228.117 364.885L226.554 371.212L222.839 366.915L228.117 364.885Z" fill="#4D5461"/>
<path fill-rule="evenodd" clip-rule="evenodd" d="M230.264 346.868L224.79 349.591C224.44 349.765 224.371 350.221 224.649 350.516L228.871 355.005C229.223 355.379 229.842 355.227 229.926 354.746L231.178 347.534C231.264 347.043 230.715 346.644 230.264 346.868ZM230.8 347.891L229.238 354.218L225.522 349.921L230.8 347.891Z" fill="#4D5461"/>
<path d="M194.776 273.914L188.757 292.086C174.998 333.703 168.223 354.826 168.02 356.806C167.893 358.036 168.639 358.957 169.79 359.269C170.481 359.457 171.327 359.447 172.377 359.291C174.011 359.049 176.195 358.436 178.833 357.525C180.871 356.821 183.074 355.975 185.307 355.061L186.245 354.674C186.55 354.547 186.847 354.422 187.134 354.3L188.625 353.658L189.051 353.47L189.298 353.076C189.738 352.376 190.365 351.138 190.983 349.441C191.525 347.95 191.958 346.352 192.243 344.666L192.342 344.029C192.431 343.409 193.281 341.975 195.035 339.526L196.258 337.854C197.261 336.502 199.19 333.92 199.384 333.659L200.518 332.122C201.602 330.645 202.548 329.324 203.473 327.994C208.111 321.316 211.388 315.472 213.322 309.848C214.962 305.077 215.537 300.656 214.887 296.592C213.893 290.389 214.274 284.462 215.726 278.899C216.931 274.277 213.117 270.013 207.617 268.446C201.934 266.825 196.519 268.66 194.776 273.914Z" fill="white"/>
<path d="M204.85 247.042C208.203 250.6 211.015 253.313 213.288 255.181C217.117 258.329 222.607 261.703 229.756 265.302C207.888 270.366 194.534 271.367 189.696 268.305C189.696 268.305 191.711 258.823 194.607 254.76C196.763 251.735 204.85 247.042 204.85 247.042Z" fill="white"/>
<path d="M239.637 201.325C235.094 218.582 222.679 236.598 209.46 233.119C196.24 229.639 188.924 206.052 193.467 188.795C198.011 171.538 212.411 160.369 225.631 163.849C238.85 167.328 244.181 184.069 239.637 201.325Z" fill="white"/>
<path d="M242.661 206.829C237.519 226.578 223.469 247.196 208.509 243.214C193.548 239.231 185.269 212.239 190.411 192.49C195.553 172.74 211.849 159.959 226.81 163.941C241.77 167.923 247.803 187.081 242.661 206.829Z" fill="white"/>
<path fill-rule="evenodd" clip-rule="evenodd" d="M218.786 166.215C228.98 166.794 236.42 170.144 240.592 176.045L241.061 176.727C243.125 179.704 244.859 181.578 245.617 187.212L245.69 187.811C246.124 191.518 246.251 195.428 246.028 196.726C245.907 197.274 245.672 197.465 245.376 197.407C244.701 197.275 242.956 194.175 240.141 188.105L237.778 190.871C236.492 192.357 233.765 193.757 232.148 194.809C230.532 195.862 218.786 166.215 218.786 166.215Z" fill="#E7EAEE"/>
<path fill-rule="evenodd" clip-rule="evenodd" d="M229.079 222.274C234.756 224.642 239.068 227.717 240.212 226.438C241.355 225.159 237.455 221.264 234.426 215.976C231.254 210.715 228.242 204.09 227.678 201.395L226.236 194.581C222.018 199.905 218.068 217.763 229.079 222.274Z" fill="white"/>
<path d="M295.076 547.494L294.769 566.439H283.993L280.765 544.702L295.076 547.494Z" fill="white"/>
<path d="M177.06 446.75C177.06 446.75 246.979 445.206 268.959 442.036C293.359 438.517 306.702 430.2 312.008 431.183C314.495 431.642 329.171 434.244 359.795 437.501C372.747 438.878 406.368 439.09 406.368 439.09L419.416 411.317C419.416 411.317 327.592 392.881 298.56 400.861C289.429 403.371 269.653 406.992 246.141 405.669C225.81 404.526 170.515 393.786 170.515 393.786C170.515 393.786 148.19 401.8 152.231 421.509C156.272 441.217 177.06 446.75 177.06 446.75Z" fill="white"/>
<path fill-rule="evenodd" clip-rule="evenodd" d="M411.936 423.201L416.233 410.755C416.233 410.755 324.563 393.656 295.531 401.635C286.4 404.145 278.147 408.283 254.636 406.961C245.635 406.454 230.246 404.347 208.469 400.641C197.453 398.766 195.683 399.46 204.341 405.122C224.419 418.252 269.081 415.157 309.602 409.241C384.914 398.245 411.936 423.201 411.936 423.201Z" fill="#E7EAEE"/>
<path d="M282.912 551.794C278.35 556.834 272.304 565.135 275.417 573.444L329.431 590.062C329.431 590.062 331.506 583.828 328.393 578.64C325.272 573.444 295.802 552.942 295.802 552.942L282.912 551.794Z" fill="white"/>
<path fill-rule="evenodd" clip-rule="evenodd" d="M307.844 563.053C308.201 562.957 308.57 563.168 308.667 563.525C308.763 563.883 308.552 564.252 308.194 564.348C306.435 564.825 305.276 565.937 304.869 567.345C304.341 569.164 304.284 571.025 304.882 574.004C304.955 574.368 304.719 574.721 304.356 574.794C303.993 574.867 303.639 574.631 303.567 574.268C302.927 571.082 302.991 569.003 303.58 566.971C304.119 565.108 305.638 563.652 307.844 563.053Z" fill="#E7EAEE"/>
<path fill-rule="evenodd" clip-rule="evenodd" d="M278.1 574.339L331.239 589.974C331.239 589.974 337.988 588.556 331.01 587.564C323.84 586.545 281.862 567.323 277.245 570.824C276.589 571.322 277.694 573.253 278.1 574.339Z" fill="#E7EAEE"/>
<path d="M145.694 442.79C145.694 442.79 169.671 450.357 188.98 453.194C208.289 456.032 246.803 457.646 246.803 457.646C246.803 457.646 258.828 464.183 259.604 467.21C259.906 468.389 261.728 483.969 266.766 503.872C269.135 513.234 281.799 555.571 281.799 555.571L298.56 548.152C298.56 548.152 297.887 470.336 287.187 444.527C276.488 418.717 166.508 393.649 166.508 393.649C166.508 393.649 143.167 389.427 136.812 408.515C130.457 427.604 145.694 442.79 145.694 442.79Z" fill="white"/>
<path fill-rule="evenodd" clip-rule="evenodd" d="M284.481 552.885L301.243 545.465C300.794 493.588 297.003 459.046 289.87 441.84C289.87 441.84 297.16 533.439 284.481 552.885Z" fill="#E7EAEE"/>
<path d="M430.641 424.221C434.812 429.589 441.936 436.985 450.659 435.362L476.405 385.054C476.405 385.054 469.78 382.124 464.131 384.288C458.471 386.46 433.586 412.43 433.586 412.43L430.641 424.221Z" fill="white"/>
<path fill-rule="evenodd" clip-rule="evenodd" d="M318.817 571.986C319.084 571.73 319.509 571.739 319.765 572.006C320.021 572.274 320.013 572.699 319.745 572.954C318.186 574.448 317.897 576.951 318.792 578.461C318.98 578.78 318.875 579.191 318.555 579.38C318.237 579.569 317.826 579.463 317.637 579.145C316.431 577.108 316.799 573.919 318.817 571.986Z" fill="#E7EAEE"/>
<path fill-rule="evenodd" clip-rule="evenodd" d="M313.337 567.562C313.607 567.308 314.032 567.321 314.286 567.592C314.539 567.862 314.525 568.286 314.256 568.54L313.893 568.888C311.072 571.665 310.263 574.091 312.747 576.695C313.003 576.963 312.992 577.388 312.725 577.644C312.457 577.9 312.032 577.889 311.776 577.622C309.941 575.697 309.564 573.619 310.377 571.539C310.938 570.104 311.914 568.899 313.337 567.562Z" fill="#E7EAEE"/>
<path fill-rule="evenodd" clip-rule="evenodd" d="M287.518 566.682C289.058 569.625 297.234 568.417 295.811 560.276C295.137 556.425 283.254 558.529 287.518 566.682Z" fill="#E7EAEE"/>
<path fill-rule="evenodd" clip-rule="evenodd" d="M445.556 436.3C456.36 423.955 462.569 396.189 471.465 386.635C474.606 383.263 478.679 382.507 474.294 390.49C466.272 405.098 450.854 436.3 450.854 436.3C450.039 436.708 449.03 436.3 448.118 436.3H445.556Z" fill="#E7EAEE"/>
<path d="M267.507 394.243C277.373 396.84 282.435 403.019 286.71 408.775C290.995 414.53 281.576 411.792 276.38 409.714C271.183 407.637 261.243 399.754 261.243 399.754L267.507 394.243Z" fill="white"/>
<path d="M177.645 370.874C177.645 370.874 233.18 394.731 241.006 394.762C248.823 394.794 268.008 404.11 269.046 411.38C270.307 420.225 236.847 407.226 236.847 407.226C236.847 407.226 162.064 407.226 149.605 394.762C137.138 382.298 145.446 356.332 145.446 356.332L177.645 370.874Z" fill="white"/>
<path d="M164.139 259.74C164.139 259.74 177.645 268.049 179.72 295.054C181.795 322.058 173.486 354.256 173.486 354.256C173.486 354.256 178.683 358.411 179.72 362.566C180.758 366.72 177.6 372.204 177.6 372.204C177.6 372.204 146.485 387.493 144.407 388.531C142.331 389.57 134.021 386.454 134.021 378.145C134.021 369.836 137.138 362.566 137.138 362.566C138.629 307.751 129.867 254.546 164.139 259.74Z" fill="white"/>
<path fill-rule="evenodd" clip-rule="evenodd" d="M219.154 202.277C222.349 197.999 229.101 196.605 230.903 203.359C230.903 203.359 232.288 207.434 229.497 209.952C220.949 217.665 215.959 206.554 219.154 202.277Z" fill="white"/>
<path fill-rule="evenodd" clip-rule="evenodd" d="M236.994 206.918C240.029 202.853 246.444 201.531 248.156 207.946C248.156 207.946 249.471 211.817 246.82 214.21C238.699 221.537 233.959 210.982 236.994 206.918Z" fill="white"/>
<path d="M212.143 258.937C212.143 258.937 212.143 308.864 212.876 336.763C213.61 364.663 207.215 392.152 194.997 413.649C182.779 435.148 184.442 465.901 175.436 468.187C104.2 486.267 123.379 265 149.736 250.861C176.093 236.722 184.8 233.726 184.8 233.726" fill="white"/>
<path fill-rule="evenodd" clip-rule="evenodd" d="M175.608 272.946L169.47 282.112C168.96 282.873 169.345 283.908 170.227 284.153L178.419 286.417C179.371 286.681 180.271 285.859 180.097 284.887L178.044 273.456C177.831 272.268 176.28 271.944 175.608 272.946ZM176.943 274.357L178.777 285.124L171.653 282.112L176.943 274.357Z" fill="#4D5461"/>
<path fill-rule="evenodd" clip-rule="evenodd" d="M155.857 263.993L148.622 275.606C148.159 276.348 148.519 277.326 149.351 277.594L161.982 281.643C163.034 281.98 164.021 280.973 163.66 279.928L158.263 264.266C157.896 263.198 156.453 263.035 155.857 263.993ZM157.572 265.409L161.268 279.928L150.316 275.606L157.572 265.409Z" fill="#4D5461"/>
<path fill-rule="evenodd" clip-rule="evenodd" d="M151.399 351.852L156.321 370.346C156.623 371.483 158.138 371.708 158.757 370.708L166.074 358.911C166.48 358.257 166.253 357.397 165.578 357.027L153.34 350.331C152.305 349.765 151.096 350.713 151.399 351.852ZM152.696 352.402L164.04 358.204L157.617 370.002L152.696 352.402Z" fill="#4D5461"/>
<path fill-rule="evenodd" clip-rule="evenodd" d="M141.545 419.761L144.229 432.438C144.475 433.601 146 433.894 146.658 432.904L153.907 421.996C154.442 421.192 153.977 420.103 153.025 419.933L143.093 418.163C142.156 417.995 141.348 418.83 141.545 419.761ZM143.886 419.562L152.494 422.612L145.067 431.093L143.886 419.562Z" fill="#4D5461"/>
<path fill-rule="evenodd" clip-rule="evenodd" d="M164.8 417.078L167.484 429.755C167.73 430.918 169.254 431.21 169.913 430.22L177.162 419.313C177.697 418.509 177.232 417.419 176.28 417.249L166.348 415.479C165.411 415.312 164.603 416.147 164.8 417.078ZM166.042 418.181L176.063 417.904L167.816 428.499L166.042 418.181Z" fill="#4D5461"/>
<path fill-rule="evenodd" clip-rule="evenodd" d="M152.278 391.14L154.961 403.817C155.207 404.98 156.732 405.272 157.391 404.282L164.64 393.375C165.175 392.571 164.71 391.481 163.758 391.311L153.825 389.541C152.889 389.374 152.08 390.208 152.278 391.14ZM153.59 390.862L162.628 393.527L155.379 402.644L153.59 390.862Z" fill="#4D5461"/>
<path fill-rule="evenodd" clip-rule="evenodd" d="M449.277 432.161C448.602 433.478 447.497 434.028 446.022 434.11C440.77 434.402 436.606 432.085 432.892 428.709C431.483 427.429 430.235 425.974 428.824 424.697C427.831 423.8 426.767 423.215 425.218 423.771C424.032 424.196 422.639 424.035 421.342 424.168C418.417 424.466 415.499 424.856 412.568 425.069C410.7 425.205 410.653 426.799 410.215 427.899C409.223 430.387 408.481 432.977 407.693 435.542C407.387 436.538 406.899 436.932 405.78 436.918C400.194 436.85 394.605 436.855 389.018 436.901C386.473 436.921 383.927 437.226 381.387 437.168C376.607 437.061 371.821 436.907 367.056 436.541C362.447 436.187 357.861 435.522 353.261 435.031C350.03 434.687 346.779 434.505 343.562 434.068C339.82 433.56 336.11 432.82 332.377 432.246C330.509 431.959 328.61 431.874 326.74 431.599C323.533 431.127 320.327 430.636 317.14 430.043C314.184 429.492 311.402 430.064 308.62 430.982C303.201 432.771 297.769 434.518 292.335 436.257C291.369 436.565 291.083 436.819 291.519 437.993C293.12 442.3 294.619 446.655 295.922 451.061C296.842 454.17 297.479 457.373 298.068 460.566C298.792 464.479 299.396 468.416 299.936 472.359C300.347 475.371 300.608 478.406 300.879 481.436C301.223 485.286 301.547 489.139 301.807 492.996C302.065 496.837 302.282 500.682 302.427 504.529C302.675 511.062 302.86 517.595 303.057 524.13C303.176 528.086 303.25 532.044 303.38 536C303.418 537.148 303.787 538.326 303.612 539.429C303.48 540.26 302.889 541.424 302.211 541.685C300.465 542.358 299.961 543.657 299.976 545.446C299.996 547.731 300.282 550.018 300.223 552.298C300.184 553.75 300.741 554.765 301.797 555.535C306.597 559.036 311.445 562.473 316.243 565.978C318.52 567.642 320.766 569.354 322.949 571.139C325.286 573.05 327.577 575.024 329.806 577.062C332.026 579.093 333.207 581.576 333.582 584.672C333.873 587.073 333.564 589.304 333.164 591.588C332.956 592.778 332.276 593.264 331.039 592.861C325.842 591.165 320.656 589.437 315.434 587.822C306.809 585.152 298.16 582.56 289.52 579.936C286.441 579.002 283.361 578.069 280.278 577.146C278.389 576.58 277.99 574.886 277.639 573.353C276.643 568.993 277.93 565.025 280.23 561.369C281.638 559.131 283.278 557.04 284.816 554.885C286.073 553.125 285.748 551.323 285.127 549.419C283.101 543.22 281.11 537.009 279.195 530.775C277.305 524.622 275.432 518.46 273.72 512.256C271.91 505.698 270.268 499.093 268.613 492.493C267.718 488.923 266.873 485.335 266.148 481.726C265.606 479.028 265.299 476.283 264.873 473.56C264.365 470.309 264.059 467.002 263.221 463.835C262.861 462.473 261.538 461.226 260.385 460.239C257.875 458.089 254.99 456.487 251.857 455.392C251.082 455.121 250.243 454.935 249.427 454.904C245.54 454.757 241.648 454.718 237.761 454.562C233.964 454.409 230.168 454.198 226.378 453.943C222.467 453.68 218.559 453.364 214.656 453.014C210.478 452.638 206.285 452.34 202.138 451.742C197.741 451.107 193.384 450.184 189.02 449.33C187.602 449.052 186.565 449.914 186.345 451.914C185.864 456.289 184.377 460.354 182.612 464.335C181.338 467.205 178.936 468.641 175.973 469.13C173.857 469.48 171.69 469.814 169.562 469.733C163.505 469.504 158.104 467.506 153.3 463.665C147.206 458.793 143.641 452.283 140.605 445.343C139.245 442.233 137.494 439.266 136.426 436.064C135.267 432.587 134.68 428.918 133.872 425.326C133.244 422.53 132.603 419.735 132.075 416.92C131.656 414.694 131.393 412.438 131.075 410.193C130.653 407.211 130.237 404.228 129.836 401.244C129.703 400.256 129.572 399.264 129.531 398.27C129.401 395.159 129.337 392.046 129.205 388.936C129.02 384.573 128.675 380.213 128.617 375.849C128.518 368.386 128.528 360.921 128.618 353.457C128.657 350.18 128.934 346.899 129.229 343.632C129.564 339.917 130.071 336.219 130.441 332.507C130.705 329.857 130.788 327.189 131.092 324.545C131.538 320.666 132.026 316.787 132.647 312.932C133.385 308.348 134.228 303.779 135.121 299.222C136.809 290.597 138.773 282.025 141.987 273.831C144.036 268.61 146.174 263.284 150.356 259.343C152.165 257.638 154.68 256.655 156.929 255.444C163.101 252.121 169.307 248.857 175.481 245.538C175.77 245.383 176.017 244.932 176.065 244.589C176.228 243.398 176.156 242.16 176.448 241.009C176.638 240.26 177.164 239.438 177.786 238.985C179.869 237.466 182.05 236.08 184.223 234.688C184.612 234.438 185.162 234.22 185.589 234.289C187.879 234.658 189.028 233.249 189.814 231.515C190.876 229.167 191.847 226.765 192.671 224.324C194.037 220.28 195.415 216.227 196.448 212.093C196.805 210.666 196.256 208.965 195.934 207.429C195.279 204.302 194.735 201.118 193.68 198.122C193.005 196.206 191.64 194.468 190.336 192.852C186.963 188.672 185.192 183.99 185.759 178.626C186.005 176.297 187.004 174.126 188.747 172.434C190.797 170.442 192.899 168.504 194.956 166.519C196.455 165.072 196.347 163.966 194.395 162.551C191.663 160.572 189.043 158.432 186.429 156.295C184.197 154.47 183.236 151.862 182.645 149.188C181.841 145.552 181.744 141.882 183.227 138.332C185.6 132.654 189.019 127.969 195.277 126.203C200.793 124.645 206.296 124.751 211.246 127.878C215.744 130.719 218.601 134.95 219.857 140.173C221.332 146.303 219.653 151.819 216.556 157.065C216.297 157.505 216.27 158.081 216.136 158.595C216.596 158.682 217.054 158.826 217.517 158.847C223.475 159.118 229.397 159.78 234.733 162.62C241.737 166.347 246.143 172.254 248.085 179.944C248.376 181.095 248.373 182.332 248.412 183.532C248.541 187.626 248.552 191.725 248.794 195.811C248.845 196.664 249.497 197.711 250.195 198.257C253.544 200.88 254.682 207.302 251.569 211.104C251.257 211.485 250.992 211.902 250.686 212.288C249.489 213.794 247.754 214.525 246.027 214.217C244.555 213.955 244.431 214.451 243.945 215.537C242.908 217.855 241.665 220.097 240.326 222.258C238.53 225.155 236.697 228.047 234.621 230.743C233.368 232.371 231.674 233.681 230.086 235.026C228.16 236.656 226.124 238.156 224.163 239.746C223.185 240.54 222.112 240.949 220.863 240.769C219.567 240.582 218.837 241.311 218.458 242.361C217.725 244.388 217.062 246.445 216.484 248.521C216.362 248.958 216.62 249.596 216.885 250.031C219.197 253.837 221.494 257.655 223.91 261.395C225.87 264.43 228.1 267.296 229.997 270.367C231.171 272.268 231.948 274.412 232.899 276.449C234.556 280.003 236.25 283.542 237.834 287.128C238.16 287.866 238.249 288.812 238.136 289.618C237.969 290.79 236.813 291.164 235.56 290.407C234.103 289.528 232.732 288.5 231.368 287.476C230.523 286.843 229.764 286.096 228.961 285.407C228.868 285.326 228.743 285.283 228.634 285.223C228.616 285.363 228.567 285.508 228.587 285.643C228.811 287.22 228.991 288.806 229.293 290.37C229.605 291.984 230.079 293.566 230.407 295.178C231.058 298.38 231.688 301.587 232.27 304.801C232.926 308.416 233.556 312.037 234.126 315.667C234.418 317.532 234.519 319.428 234.771 321.301C235.152 324.133 235.63 326.953 235.987 329.789C236.182 331.337 236.225 332.906 236.311 334.467C236.428 336.596 236.506 338.727 236.628 340.854C236.929 346.105 237.233 351.355 237.565 356.603C237.647 357.904 238.411 358.905 239.583 359.277C242.916 360.336 245.245 364.226 244.685 367.475C244.555 368.23 244.387 369.011 244.055 369.691C243.257 371.325 244.297 372.253 245.331 373.103C247.01 374.482 248.76 375.778 250.514 377.063C254.676 380.115 258.868 383.126 263.031 386.177C266.803 388.941 270.964 390.862 275.428 392.224C279.013 393.318 282.062 395.392 284.929 397.781C286.337 398.954 287.555 400.691 289.785 400.263C292.94 399.656 296.087 398.999 299.234 398.349C300.183 398.154 301.115 397.867 302.069 397.704C305.389 397.132 307.35 394.782 309.305 392.351C310.759 390.543 312.381 388.869 313.894 387.107C316.871 383.64 319.816 380.145 322.792 376.677C324.27 374.952 325.793 373.265 327.287 371.554C331.496 366.731 335.681 361.886 339.917 357.085C342.138 354.569 344.451 352.135 346.71 349.653C347.318 348.985 347.969 348.333 348.45 347.578C349.181 346.429 349.927 346.077 351.357 346.54C354.481 347.551 354.425 347.359 352.24 349.755C348.328 354.047 344.546 358.457 340.693 362.804C338.81 364.929 336.863 366.999 334.996 369.138C331.718 372.89 328.489 376.685 325.218 380.443C322.896 383.111 320.546 385.753 318.195 388.396C316.377 390.441 314.533 392.463 312.72 394.513C312.562 394.692 312.438 395.189 312.494 395.223C312.937 395.502 313.436 395.912 313.902 395.893C317.699 395.746 321.491 395.455 325.288 395.325C328.13 395.229 330.981 395.228 333.823 395.326C337.465 395.452 341.113 395.609 344.739 395.957C348.78 396.344 352.798 396.967 356.827 397.476C360.957 398.001 365.102 398.432 369.217 399.052C373.331 399.673 377.411 400.509 381.516 401.192C384.915 401.757 388.339 402.178 391.733 402.768C396.062 403.522 400.371 404.398 404.693 405.192C407.728 405.75 410.776 406.236 413.81 406.794C416.737 407.331 419.647 407.956 422.578 408.475C424.424 408.803 426.286 409.133 428.152 409.21C428.933 409.243 429.93 408.818 430.51 408.266C434.947 404.044 439.249 399.679 443.706 395.478C448.695 390.777 453.912 386.34 459.536 382.395C462.11 380.59 464.992 380.905 467.796 381.148C469.43 381.289 471.01 382.077 472.611 382.586C473.924 383.003 474.041 383.814 473.457 384.961C470.804 390.169 468.197 395.401 465.542 400.61C463.248 405.11 460.911 409.591 458.515 414.157C455.385 420.211 452.336 426.188 449.277 432.161ZM203.683 393.752C205.078 389.718 206.302 385.616 207.403 381.491C208.117 378.811 208.523 376.044 208.982 373.301C209.454 370.484 209.849 367.652 210.23 364.82C210.673 361.532 211.362 358.241 211.416 354.942C211.523 348.319 211.249 341.69 211.176 335.063C211.131 331.013 211.108 326.96 211.188 322.912C211.249 319.727 209.396 317.353 208.046 314.741C207.147 313.002 206.198 311.247 205.624 309.39C204.57 305.985 203.713 302.513 202.897 299.041C202.338 296.666 201.928 294.252 201.56 291.839C201.135 289.047 200.218 286.424 199.025 283.891C198.925 283.678 198.088 283.523 197.998 283.643C197.517 284.286 197.16 285.022 196.771 285.732C196.081 286.997 195.032 288.201 194.792 289.548C194.313 292.238 193.073 294.548 191.806 296.856C191.017 298.293 189.688 298.331 188.765 297.012C187.773 295.594 186.701 294.164 186.068 292.577C184.58 288.848 183.247 285.051 182.007 281.231C180.379 276.21 178.843 271.158 177.38 266.085C176.617 263.438 175.856 260.748 175.535 258.026C175.221 255.357 175.47 252.621 175.462 249.915C175.461 249.673 175.387 249.431 175.347 249.189C175.237 249.276 175.137 249.378 175.016 249.445C172.18 251.005 169.361 252.599 166.498 254.108C163.658 255.605 160.804 257.082 157.898 258.444C154.714 259.937 151.518 261.477 149.674 264.605C147.679 267.989 145.347 271.213 144.145 275.028C142.905 278.96 141.503 282.847 140.425 286.822C139.321 290.887 138.571 295.048 137.576 299.144C136.941 301.761 135.895 304.3 135.478 306.944C134.842 310.977 134.449 315.063 134.221 319.142C134.026 322.643 134.04 326.152 133.568 329.639C133.201 332.347 132.952 335.07 132.622 337.783C132.118 341.913 131.215 346.035 131.15 350.171C131.007 359.327 131.384 368.49 131.341 377.65C131.319 382.45 132.035 387.143 132.6 391.875C133.228 397.128 133.599 402.411 134.199 407.668C134.606 411.241 135.014 414.834 135.776 418.341C137.016 424.05 138.349 429.754 140.005 435.354C142.072 442.341 145.106 448.923 149.379 454.892C152.049 458.623 155.309 461.678 159.332 463.874C164.787 466.851 170.637 466.594 176.499 465.685C177.459 465.536 178.703 464.797 179.115 463.977C180.269 461.682 181.277 459.262 181.933 456.784C182.867 453.261 183.279 449.601 184.195 446.073C185.705 440.256 187.604 434.537 189.027 428.7C190.198 423.891 192.432 419.553 194.372 415.083C195.8 411.794 197.489 408.617 199.216 405.236C200.717 401.412 202.342 397.631 203.683 393.752ZM255.173 453.139C257.995 454.864 260.763 456.694 263.448 458.625C265.125 459.832 266.33 461.584 266.697 463.611C267.549 468.303 268.113 473.047 268.936 477.744C269.514 481.042 270.344 484.294 271.03 487.573C271.589 490.242 272.106 492.921 272.635 495.595C273.157 498.225 273.664 500.856 274.191 503.483C274.593 505.486 275.008 507.486 275.432 509.484C276.117 512.715 276.662 515.985 277.547 519.161C278.419 522.289 279.731 525.293 280.688 528.401C282.28 533.572 284.256 538.579 286.545 543.481C287.088 544.643 288.001 544.409 288.542 544.197C291.967 542.856 295.345 541.392 298.702 539.885C299.761 539.41 300.325 538.489 300.275 537.23C300.143 533.809 300.051 530.387 299.957 526.966C299.845 522.873 299.75 518.779 299.645 514.686C299.542 510.678 299.52 506.666 299.311 502.664C299.107 498.753 298.724 494.853 298.401 490.95C297.997 486.088 297.623 481.222 297.145 476.366C296.816 473.014 296.514 469.641 295.879 466.339C294.782 460.622 293.433 454.952 292.195 449.261C290.752 442.629 287.965 436.85 282.452 432.509C278.255 429.203 273.852 426.252 269.091 423.893C263.823 421.284 258.497 418.744 253.03 416.599C246.78 414.148 240.71 411.051 233.828 410.487C230.522 410.216 227.243 409.636 223.942 409.285C221.295 409.004 218.625 408.923 215.978 408.633C211.789 408.175 207.616 407.566 203.423 407.154C202.836 407.097 201.95 407.649 201.59 408.181C200.761 409.403 200.137 410.771 199.49 412.108C197.469 416.286 195.102 420.345 193.565 424.695C191.534 430.444 190.155 436.422 188.508 442.306C187.575 445.639 187.554 445.788 190.461 446.397C193.823 447.102 197.239 447.57 200.646 448.039C202.874 448.346 205.132 448.43 207.369 448.687C211.606 449.174 215.833 449.756 220.074 450.214C222.772 450.505 225.485 450.681 228.195 450.841C232.246 451.082 236.298 451.307 240.353 451.455C242.78 451.543 245.214 451.471 247.956 451.471C250.502 451.424 252.989 451.804 255.173 453.139ZM376.84 433.78C379.453 433.903 382.066 434.031 384.679 434.086C390.739 434.215 396.799 434.317 402.861 434.391C404.07 434.405 405.16 433.904 405.486 432.659C407.243 425.955 410.695 419.739 411.139 412.647C411.251 410.848 410.472 409.577 408.635 409.256C406.72 408.921 404.829 408.451 402.918 408.086C400.516 407.628 398.103 407.227 395.697 406.785C393.537 406.388 391.379 405.975 389.223 405.558C387.644 405.253 386.073 404.917 384.493 404.618C381.469 404.047 378.442 403.487 375.416 402.932C373.346 402.553 371.278 402.165 369.201 401.831C367.59 401.573 365.964 401.41 364.35 401.175C360.939 400.677 357.53 400.161 354.12 399.65C352.172 399.358 350.23 399.038 348.278 398.775C345.675 398.424 343.065 397.83 340.461 397.845C333.925 397.882 327.39 398.169 320.857 398.424C317.733 398.546 314.602 398.72 311.498 399.07C309.76 399.266 308.088 399.816 306.828 401.28C304.774 403.666 302.57 405.921 300.495 408.288C299.185 409.784 297.959 411.356 296.761 412.944C295.177 415.045 293.245 416.321 290.483 416.107C285.96 415.758 281.43 415.5 276.906 415.153C275.227 415.024 273.556 414.774 271.887 414.54C269.056 414.144 266.234 413.684 263.399 413.313C260.689 412.959 257.97 412.665 255.251 412.385C254.483 412.306 253.699 412.35 252.926 412.393C252.772 412.402 252.632 412.665 252.486 412.81C252.643 412.884 252.804 412.95 252.959 413.03C254.319 413.741 255.645 414.532 257.045 415.151C261.154 416.966 265.392 418.517 269.397 420.531C275.214 423.457 280.641 427.028 285.576 431.322C287.106 432.654 288.575 433.642 291.084 433.309C295.062 432.779 298.779 431.798 302.349 430.062C307.153 427.724 312.04 425.807 317.564 426.952C320.76 427.615 323.973 428.195 327.165 428.88C329.187 429.313 331.159 430.028 333.196 430.33C335.723 430.705 338.295 430.771 340.846 430.994C345.487 431.398 350.124 431.827 354.764 432.229C357.914 432.503 361.066 432.75 364.373 433.163C368.529 433.37 372.684 433.586 376.84 433.78ZM215.19 344.134C215.236 345.373 215.187 346.616 215.207 347.857C215.304 353.657 215.395 359.457 215.525 365.257C215.562 366.94 215.488 368.675 215.874 370.29C216.654 373.557 217.679 376.769 218.676 379.981C219.102 381.356 219.697 382.667 221.252 383.211C222.604 383.685 223.914 384.28 225.27 384.746C227.281 385.437 227.898 385.176 229.209 383.335C229.643 382.727 230.144 382.164 230.631 381.595C233.774 377.932 237.011 374.343 240.037 370.586C242.271 367.812 241.884 363.349 238.144 361.917C237.741 361.763 237.342 361.578 236.925 361.491C234.715 361.033 234.816 361.04 234.743 358.951C234.481 351.489 235.357 344.006 234.184 336.553C233.716 333.577 233.909 330.5 233.478 327.515C232.808 322.871 231.882 318.263 231.031 313.646C230.227 309.28 229.421 304.912 228.54 300.56C227.882 297.312 227.092 294.092 226.384 290.855C225.844 288.385 225.42 285.887 224.768 283.449C224.591 282.79 223.773 282.302 223.25 281.736C222.637 282.327 221.565 282.866 221.491 283.518C221.115 286.827 220.605 290.199 220.896 293.481C221.229 297.252 221.796 300.991 221.075 304.734C220.255 309 218.89 313.097 216.579 316.829C215.298 318.898 214.341 321.045 214.559 323.605C214.774 326.138 214.844 328.688 214.881 331.23C214.932 334.849 214.893 338.47 214.893 342.4C214.997 342.978 215.169 343.553 215.19 344.134ZM198.913 215.958C198.652 216.363 198.289 216.734 198.145 217.177C196.671 221.688 195.324 226.244 193.748 230.719C192.799 233.416 191.309 235.822 188.846 237.516C187.056 238.747 185.386 240.152 183.635 241.441C182.772 242.076 182.954 242.627 183.493 243.398C185.105 245.707 186.808 247.979 188.153 250.441C190.01 253.839 191.6 257.384 193.252 260.891C194.862 264.308 196.543 267.702 197.937 271.207C199.122 274.184 199.759 277.383 200.978 280.343C202.079 283.02 203.261 285.659 203.66 288.525C203.796 289.5 204.112 289.508 204.851 289.506C209.29 289.491 213.577 288.904 217.32 286.261C217.64 286.034 217.91 285.57 217.971 285.18C218.119 284.238 218.093 283.269 218.204 282.319C218.281 281.648 218.719 280.924 218.562 280.339C217.979 278.166 217.203 276.046 216.525 273.898C215.229 269.795 213.529 265.735 213.413 261.406C213.295 257.001 213.691 252.576 213.993 248.169C214.116 246.371 214.468 244.567 214.924 242.82C215.457 240.771 215.33 240.21 213.48 239.21C210.436 237.564 207.811 235.352 205.936 232.499C202.873 227.842 200.521 222.83 199.682 217.037C199.425 216.678 199.169 216.318 198.913 215.958ZM243.073 214.585C243.157 214.417 243.91 213.894 242.79 213.705C241.659 213.515 240.381 212.966 239.603 212.155C238.079 210.566 236.818 208.715 235.537 206.909C235.175 206.397 235.046 206.087 234.537 206.7C234.214 207.089 233.793 207.398 233.47 207.787C230.67 211.17 226.642 212.606 222.872 211.666C218.35 210.539 215.595 205.719 215.533 201.538C215.508 199.871 214.981 198.473 213.649 197.515C211.434 195.919 209.154 194.409 206.877 192.901C205.601 192.057 204.387 192.332 204.057 193.664C203.243 196.96 202.228 200.264 201.944 203.62C201.592 207.771 201.76 211.963 202.751 216.106C204.421 223.085 206.589 229.717 212.284 234.636C215.957 237.807 220.492 238.52 224.865 236.602C229.199 234.699 231.86 231.182 234.451 227.52C236.628 224.442 238.798 221.359 241.126 218.124C241.784 216.949 242.466 215.786 243.073 214.585ZM430.732 421.875C433.743 425.707 437.244 428.905 442.036 430.452C444.996 431.408 446.08 431.239 447.718 428.117C451.06 421.747 454.362 415.357 457.656 408.963C458.971 406.408 460.187 403.803 461.504 401.25C464.078 396.264 466.685 391.294 469.294 386.325C469.77 385.419 469.317 384.598 468.616 384.504C466.182 384.179 463.613 383.484 461.352 384.988C458.371 386.97 455.371 388.964 452.629 391.253C448.47 394.725 444.464 398.388 440.519 402.103C438.73 403.789 437.218 405.776 435.628 407.665C434.371 409.158 432.759 410.414 432.28 412.454C431.838 414.34 431.402 416.227 430.964 418.424C430.447 419.549 429.871 420.779 430.732 421.875ZM328.202 588.416C328.911 588.473 330.278 588.151 330.285 587.959C330.376 585.289 330.882 582.458 328.485 580.373C325.369 577.662 322.351 574.826 319.101 572.286C313.859 568.188 308.464 564.285 303.13 560.304C301.224 558.881 299.328 557.371 296.903 557C294.731 556.668 292.517 556.624 290.338 556.333C288.5 556.088 287.25 556.884 286.134 558.207C283.427 561.416 281.459 564.983 280.715 569.149C280.13 572.414 281.181 574.213 283.817 574.988C288.836 576.466 293.819 578.065 298.827 579.576C302.417 580.658 306.039 581.634 309.621 582.739C314.845 584.352 320.046 586.039 325.567 587.694C326.444 587.949 327.31 588.347 328.202 588.416ZM222.81 387.231C219.344 385.859 215.899 384.435 212.425 383.084C211.399 382.685 210.525 382.567 210.186 384.148C209.819 385.864 209.036 387.489 208.47 389.166C207.213 392.886 205.951 396.605 204.761 400.348C204.541 401.039 204.207 402.009 205.573 402.142C207.352 402.314 209.122 402.61 210.904 402.74C214.384 402.993 217.867 403.242 221.354 403.356C226.533 403.527 231.716 403.589 236.898 403.68C238.552 403.709 240.208 403.679 241.864 403.688C242.266 403.69 242.693 403.661 243.067 403.779C247.553 405.181 252.023 406.634 256.514 408.022C261.031 409.418 265.555 410.79 270.38 410.521C272.056 410.427 272.363 410.113 271.747 408.571C271.411 407.73 270.944 406.873 270.325 406.225C267.303 403.057 263.612 400.846 259.664 399.027C256.52 397.579 253.445 395.963 249.907 395.599C248.251 395.429 246.583 395.19 244.974 394.774C242.419 394.113 239.885 393.347 237.386 392.495C234.264 391.432 231.185 390.238 227.777 389.1C226.12 388.479 224.455 387.882 222.81 387.231ZM183.835 250.248C182.382 247.997 180.853 245.795 179.352 243.575C179.143 243.266 178.915 242.97 178.696 242.669C178.551 243.177 178.347 243.677 178.272 244.195C178.024 245.908 177.884 247.64 177.59 249.344C177.007 252.718 176.69 256.034 178.878 259.033C179.015 259.222 179.125 259.451 179.187 259.678C179.991 262.601 180.781 265.528 181.583 268.452C181.786 269.193 181.998 269.931 182.242 270.659C183.287 273.791 184.555 276.867 185.343 280.061C186.153 283.342 186.774 286.64 188.455 289.637C188.938 290.498 189.095 291.538 189.452 292.476C189.558 292.757 189.909 293.208 190.019 293.173C190.375 293.062 190.843 292.827 190.963 292.521C192.351 288.955 193.02 285.06 195.654 282.066C197.892 279.523 197.428 276.924 196.055 274.208C195.519 273.148 195.187 271.985 194.708 270.893C193.673 268.531 192.682 266.144 191.524 263.842C190.511 261.831 189.286 259.929 188.172 257.969C187.388 256.591 186.634 255.196 185.712 253.653C185.09 252.515 184.536 251.335 183.835 250.248ZM267.688 392.66C263.154 389.731 258.558 386.886 254.165 383.756C250.486 381.136 247.077 378.14 243.502 375.371C242.537 374.624 241.43 374.375 240.444 375.502C238.847 377.327 237.219 379.126 235.624 380.953C234.436 382.314 233.295 383.716 232.105 385.075C231.175 386.138 231.273 386.708 232.634 387.115C237.009 388.422 241.415 389.626 245.776 390.976C251.729 392.819 257.676 394.691 263.576 396.697C265.463 397.34 267.126 398.636 269.012 399.287C270.927 399.949 272.973 400.293 274.991 400.575C277.321 400.899 279.681 401.029 282.032 401.175C282.408 401.198 282.805 400.863 283.191 400.694C282.962 400.375 282.788 399.989 282.494 399.748C278.767 396.698 274.316 395.123 269.687 393.444C269.017 393.189 268.278 393.04 267.688 392.66ZM208.657 310.927C209.233 313.114 210.602 314.176 212.711 314.375C214.532 314.546 215.067 313.547 215.51 312.217C216.146 310.311 216.776 308.403 217.373 306.484C218.698 302.224 218.509 297.931 217.715 293.6C217.457 292.188 217.518 290.716 217.452 289.27C217.443 289.061 217.55 288.846 217.603 288.633C217.39 288.695 217.17 288.738 216.966 288.822C215.688 289.351 214.457 290.084 213.128 290.382C210.639 290.941 208.1 291.312 205.567 291.635C204.589 291.76 204.009 291.863 204.319 293.059C204.613 294.19 204.73 295.365 204.963 296.513C205.466 298.985 205.994 301.452 206.512 304.232C207.236 306.461 208.06 308.664 208.657 310.927ZM235.186 287.585C235.427 287.789 235.696 287.962 235.952 288.149C235.95 287.803 236.045 287.419 235.931 287.115C235.258 285.328 234.631 283.514 233.811 281.794C232.06 278.122 230.451 274.347 228.314 270.906C226.213 267.524 223.384 264.6 221.152 261.288C219.553 258.916 218.422 256.229 217.056 253.697C216.847 253.307 216.5 252.991 216.216 252.641C216.086 253.053 215.834 253.467 215.844 253.874C215.909 256.52 215.944 259.171 216.166 261.805C216.317 263.602 216.62 265.412 217.103 267.147C217.639 269.074 218.611 270.882 219.112 272.815C219.699 275.077 220.773 276.508 222.964 277.716C226.596 279.72 230.344 281.802 232.9 285.614C233.661 286.272 234.418 286.934 235.186 287.585ZM219.016 199.904C217.824 201.639 220.034 207.72 221.237 208.173C229.649 211.339 232.047 205.92 232.158 204.433C232.377 201.48 232.741 198.486 229.95 196.093C222.587 194.627 220.942 197.098 219.016 199.904ZM251.23 202.362C250.099 199.545 248.388 197.708 245.408 198.35C243.888 198.678 242.549 199.884 241.15 200.73C238.145 202.547 237.753 203.541 238.803 206.763C239.854 209.987 242.305 211.834 245.425 212.461C248.006 212.98 249.852 211.379 251.216 208.969C251.559 206.769 252.125 204.591 251.23 202.362ZM240.089 198.719C241.302 197.857 242.617 196.58 243.925 196.533C246.189 196.451 245.821 195.068 245.577 193.98C244.895 190.938 244.003 187.94 243.133 184.944C242.537 182.892 242.034 182.774 240.588 184.219C238.112 186.694 235.604 189.121 232.495 190.831C231.522 191.366 231.388 192.596 232.084 193.567C232.343 193.927 232.694 194.238 232.888 194.627C233.844 196.55 234.712 198.519 235.732 200.406C235.959 200.823 235.787 202.299 237.246 201.212C238.188 200.373 239.067 199.447 240.089 198.719ZM422.777 421.319C424.889 420.925 427.152 420.384 427.478 417.575C427.533 417.103 427.748 416.652 427.855 416.184C428.522 413.279 427.767 412.349 424.859 412.037C422.121 411.743 419.403 411.253 416.682 410.814C415.227 410.579 414.959 410.852 414.798 412.333C414.575 414.385 414.256 416.431 413.872 418.46C413.536 420.238 414.033 421.645 415.597 421.993C417.993 421.785 420.423 421.756 422.777 421.319ZM296.005 553.514C296.3 553.501 296.802 552.915 296.813 552.581C296.887 550.361 296.833 548.138 296.858 545.916C296.872 544.668 295.915 544.626 295.229 544.846C293.735 545.321 292.312 546.032 290.87 546.666C289.828 547.125 288.656 547.496 288.782 548.999C288.872 550.06 288.872 551.146 289.116 552.173C289.522 553.877 290.993 553.066 292.194 553.405C293.465 553.457 294.739 553.571 296.005 553.514ZM213.318 373.007C213.229 372.755 212.862 372.6 212.622 372.401C212.448 372.65 212.145 372.887 212.121 373.15C211.975 374.746 211.85 376.346 211.801 377.947C211.753 379.511 212.861 380.525 214.451 380.381C214.722 380.356 215.199 379.881 215.164 379.691C214.93 378.42 214.583 377.17 214.118 375.757C213.858 374.838 213.636 373.906 213.318 373.007ZM300.784 402.322C300.956 401.981 301.318 401.03 300.266 401.228C298.659 401.529 297.081 401.984 295.501 402.415C295.212 402.494 294.976 402.764 294.716 402.947C295.018 403.089 295.316 403.344 295.623 403.355C296.91 403.401 298.2 403.374 299.645 403.219C300.04 402.928 300.587 402.712 300.784 402.322ZM180.9 239.534C180.652 239.678 180.404 239.823 180.158 239.967C180.352 240.183 180.512 240.484 180.754 240.585C180.9 240.646 181.218 240.438 181.386 240.276C182.341 239.35 183.279 238.407 184.212 237.458C184.398 237.267 184.534 237.027 184.693 236.81C184.379 236.872 183.985 236.833 183.766 237.011C182.834 237.766 181.954 238.585 180.9 239.534Z" fill="#00160A"/>
<path fill-rule="evenodd" clip-rule="evenodd" d="M214.166 221.459C212.712 220.672 211.273 220.027 210.97 218.275C210.383 214.871 211.61 210.859 216.047 211.093C220.048 211.303 222.586 214.626 221.171 218.378C220.127 221.145 217.594 222.517 214.166 221.459Z" fill="#4D5461"/>
<path fill-rule="evenodd" clip-rule="evenodd" d="M233.895 208.758C233.975 208.236 234.054 207.871 234.134 207.505C234.26 207.824 234.422 208.133 234.506 208.462C235.13 210.905 237.108 216.985 234.752 219.783C234.556 220.016 233.562 220.053 232.943 220.014C231.727 219.937 230.308 218.143 230.535 216.985C230.569 216.812 233.504 219.661 234.134 218.118C235.185 215.547 233.895 209.642 233.895 208.758Z" fill="#00160A"/>
<path fill-rule="evenodd" clip-rule="evenodd" d="M217.334 226.576C217.212 226.514 217.043 226.531 216.896 226.537C216.535 226.552 216.04 225.904 216.25 225.63C216.568 225.217 216.927 224.802 217.357 224.53C217.613 224.368 218.036 224.892 218.004 225.124C217.981 225.297 218.145 225.569 218.305 225.686C220.736 227.471 223.434 228.629 226.387 229.185C226.582 229.222 226.752 229.396 226.933 229.506C226.752 229.632 226.572 229.877 226.39 229.866C223.169 229.677 219.444 227.647 217.334 226.576Z" fill="#00160A"/>
<path fill-rule="evenodd" clip-rule="evenodd" d="M138.851 366.407L135.792 379.474C135.555 380.485 136.506 381.37 137.497 381.061L148.118 377.755C149.012 377.476 149.354 376.391 148.78 375.652L141.218 365.891C140.527 364.998 139.109 365.308 138.851 366.407ZM140.158 368.502L146.825 376.473L137.098 379.78L140.158 368.502Z" fill="#4D5461"/>
<path fill-rule="evenodd" clip-rule="evenodd" d="M148.344 291.014C147.226 290.914 146.486 292.149 147.103 293.087L154.885 304.917C155.409 305.714 156.575 305.724 157.114 304.936L164.275 294.447C164.853 293.601 164.308 292.446 163.288 292.354L148.344 291.014ZM149.397 292.354L162.775 294.955L154.885 303.214L149.397 292.354Z" fill="#4D5461"/>
<path fill-rule="evenodd" clip-rule="evenodd" d="M197.659 381.47H186.684C185.774 381.47 185.129 382.356 185.407 383.222L189.094 394.681C189.442 395.764 190.893 395.95 191.503 394.991L198.792 383.532C199.36 382.638 198.718 381.47 197.659 381.47ZM196.765 383.706L191.265 394.271L187.578 382.812L196.765 383.706Z" fill="#4D5461"/>
<path fill-rule="evenodd" clip-rule="evenodd" d="M161.697 443.565L161.195 453.499C161.142 454.54 162.245 455.242 163.165 454.752L175.927 447.953C177.007 447.378 176.815 445.773 175.628 445.469L163.369 442.333C162.547 442.122 161.74 442.718 161.697 443.565ZM162.666 444.513L174.394 446.142L163.165 452.779L162.666 444.513Z" fill="#4D5461"/>
<path fill-rule="evenodd" clip-rule="evenodd" d="M144.776 321.55L134.937 328.37C134.105 328.947 134.188 330.204 135.089 330.666L146.603 336.577C147.565 337.071 148.687 336.281 148.546 335.208L146.87 322.478C146.74 321.482 145.601 320.979 144.776 321.55ZM145.171 323.919L147.216 335.383L135.702 329.473L145.171 323.919Z" fill="#4D5461"/>
<path fill-rule="evenodd" clip-rule="evenodd" d="M189.919 350.762L183.781 359.928C183.252 360.717 183.689 361.79 184.618 361.987L191.796 363.506C192.683 363.692 193.496 362.965 193.408 362.063L192.37 351.378C192.248 350.124 190.621 349.715 189.919 350.762ZM191.591 352.598V362.413L185.42 359.928L191.591 352.598Z" fill="#4D5461"/>
<path fill-rule="evenodd" clip-rule="evenodd" d="M191.083 307.578C192.869 306.412 194.436 306.688 193.16 309.254C193.16 309.254 183.849 332.863 181.066 333.142C178.428 333.407 177.155 329.995 173.471 320.24L173.314 319.824C173.3 319.787 173.288 319.751 173.277 319.714L173.258 319.636L173.234 319.593L173.183 319.474L172.742 318.282C172.222 316.862 170.912 314.517 170.219 313.703C169.481 312.836 171.128 312.298 172.344 312.298C174.615 312.298 177.393 312.932 181.761 311.671C186.878 310.195 188.634 309.175 191.083 307.578ZM187.122 319.707L187 319.786C185.7 320.586 184.264 321.201 182.696 321.63C180.819 322.142 178.096 322.206 176.334 321.822L176.04 321.753L176.149 322.024C177.143 324.502 178.027 327.367 178.797 328.824L179.066 329.319C179.549 330.188 179.973 330.817 180.316 331.196L180.423 331.308L180.556 331.147C181.13 330.413 183.174 327.651 184.594 324.892L184.743 324.602C185.351 323.41 186.014 322.055 186.732 320.538L187.122 319.707ZM190.955 310.305L190.739 310.428C188.719 311.553 185.377 313.42 182.505 314.249C179.067 315.241 176.153 315.595 173.755 315.278L173.608 315.256L173.692 315.493C173.921 316.134 174.893 319.169 175.236 319.636C176.628 320.921 178.334 321.044 180.423 320.538L180.723 320.461C188.203 319.015 190.955 310.305 190.955 310.305Z" fill="#4D5461"/>
<path fill-rule="evenodd" clip-rule="evenodd" d="M453.65 392.844C453.948 392.624 454.367 392.688 454.587 392.986C456.136 395.086 458.758 395.189 462.243 393.254C462.567 393.074 462.976 393.191 463.156 393.515C463.335 393.839 463.218 394.247 462.894 394.427C458.884 396.654 455.527 396.521 453.507 393.782C453.287 393.484 453.351 393.064 453.65 392.844Z" fill="#E7EAEE"/>
<path fill-rule="evenodd" clip-rule="evenodd" d="M448.578 398.215C448.853 397.967 449.277 397.986 449.526 398.261C451.875 400.845 454.996 400.992 457.535 399.637C457.861 399.462 458.268 399.586 458.443 399.912C458.617 400.238 458.494 400.645 458.166 400.82C455.134 402.439 451.349 402.26 448.533 399.163C448.284 398.889 448.305 398.465 448.578 398.215Z" fill="#E7EAEE"/>
<path fill-rule="evenodd" clip-rule="evenodd" d="M443.085 403.542C443.355 403.288 443.78 403.3 444.034 403.57C446.297 405.974 450.9 407.151 454.049 405.482C454.376 405.308 454.782 405.433 454.956 405.761C455.129 406.088 455.004 406.494 454.677 406.668C450.949 408.643 445.706 407.304 443.056 404.49C442.802 404.22 442.816 403.795 443.085 403.542Z" fill="#E7EAEE"/>
<path fill-rule="evenodd" clip-rule="evenodd" d="M447.349 424.579C452.058 422.3 447.19 413.858 442.633 417.275C439.71 419.467 442.915 426.725 447.349 424.579Z" fill="#E7EAEE"/>
</svg>
