<svg width="16" height="16" viewBox="0 0 16 16" fill="none" xmlns="http://www.w3.org/2000/svg">
  <path
    d="M13.3333 9.33333H6.66667V2.66667C6.66667 1.196 5.47067 0 4 0H2.66667C1.196 0 0 1.196 0 2.66667V12.6667C0 14.5047 1.49533 16 3.33333 16H13.3333C14.804 16 16 14.804 16 13.3333V12C16 10.5293 14.804 9.33333 13.3333 9.33333ZM14.6667 13.3333C14.6667 14.0687 14.0687 14.6667 13.3333 14.6667H3.33333C2.23067 14.6667 1.33333 13.7693 1.33333 12.6667V2.66667C1.33333 1.93133 1.93133 1.33333 2.66667 1.33333H4C4.73533 1.33333 5.33333 1.93133 5.33333 2.66667V4H4C3.632 4 3.33333 4.298 3.33333 4.66667C3.33333 5.03533 3.632 5.33333 4 5.33333H5.33333V6.66667H4C3.632 6.66667 3.33333 6.96467 3.33333 7.33333C3.33333 7.702 3.632 8 4 8H5.33333V9.33333H4C3.632 9.33333 3.33333 9.63133 3.33333 10C3.33333 10.3687 3.632 10.6667 4 10.6667H5.33333V12C5.33333 12.3687 5.632 12.6667 6 12.6667C6.368 12.6667 6.66667 12.3687 6.66667 12V10.6667H8V12C8 12.3687 8.29867 12.6667 8.66667 12.6667C9.03467 12.6667 9.33333 12.3687 9.33333 12V10.6667H10.6667V12C10.6667 12.3687 10.9647 12.6667 11.3333 12.6667C11.702 12.6667 12 12.3687 12 12V10.6667H13.3333C14.0687 10.6667 14.6667 11.2647 14.6667 12V13.3333Z"
    fill="#5B4DFF" />
</svg>