<svg width="16" height="16" viewBox="0 0 16 16" fill="none" xmlns="http://www.w3.org/2000/svg">
  <path
    d="M14 8H8.014L6.64467 6.04333C6.04134 5.18133 5.05267 4.66667 4.00067 4.66667H3.66734C2.38067 4.66667 1.334 5.71333 1.334 7V8.12267C0.560005 8.39867 0.000671387 9.132 0.000671387 10V12.6667C0.000671387 14.5047 1.496 16 3.334 16H12.6673C14.5053 16 16.0007 14.5047 16.0007 12.6667V10C16.0007 8.89733 15.1033 8 14.0007 8H14ZM6 9.33333V14.6667H4.66667V9.33333H6ZM7.33334 9.33333H8.66667V14.6667H7.33334V9.33333ZM10 9.33333H11.3333V14.6667H10V9.33333ZM3.66667 6H4C4.61734 6 5.19734 6.302 5.552 6.808L6.38667 8H2.66667V7C2.66667 6.44867 3.11534 6 3.66667 6ZM1.33334 12.6667V10C1.33334 9.63267 1.63267 9.33333 2 9.33333H3.33334V14.6667C2.23067 14.6667 1.33334 13.7693 1.33334 12.6667ZM14.6667 12.6667C14.6667 13.7693 13.7693 14.6667 12.6667 14.6667V9.33333H14C14.3673 9.33333 14.6667 9.63267 14.6667 10V12.6667ZM2 1.66667C2 0.746 2.746 0 3.66667 0C4.58734 0 5.33334 0.746 5.33334 1.66667C5.33334 2.58733 4.58734 3.33333 3.66667 3.33333C2.746 3.33333 2 2.58733 2 1.66667ZM12.6667 0.781333V0.668667C12.6653 0.300667 12.9627 0.00133333 13.3313 0H13.3333C13.7007 0 13.9993 0.297333 14 0.664667V0.779333C14 1.20467 14.172 1.62 14.472 1.91933C15.0273 2.47467 15.334 3.21333 15.334 4C15.334 4.368 15.0353 4.66667 14.6673 4.66667C14.2993 4.66667 14.0007 4.368 14.0007 4C14.0007 3.57 13.8333 3.166 13.5293 2.862C12.9733 2.306 12.6673 1.56733 12.6673 0.780667L12.6667 0.781333ZM10.862 3.324C10.306 2.768 10 2.02933 10 1.24267V0.666667C10 0.298667 10.2987 0 10.6667 0C11.0347 0 11.3333 0.298667 11.3333 0.666667V1.24267C11.3333 1.666 11.5053 2.08133 11.8047 2.38067C12.36 2.936 12.6667 3.67467 12.6667 4.46133V4.66667C12.6667 5.03467 12.368 5.33333 12 5.33333C11.632 5.33333 11.3333 5.03467 11.3333 4.66667V4.46133C11.3333 4.03133 11.166 3.62733 10.862 3.32333V3.324Z"
    fill="#5B4DFF" />
</svg>