<svg width="16" height="14" viewBox="0 0 16 14" fill="none" xmlns="http://www.w3.org/2000/svg">
  <path
    d="M12.6667 0.333313H3.33333C1.49533 0.333313 0 1.82865 0 3.66665V13C0 13.3686 0.298667 13.6666 0.666667 13.6666C1.03467 13.6666 1.33333 13.3686 1.33333 13V11.6666H14.6667V13C14.6667 13.3686 14.9647 13.6666 15.3333 13.6666C15.702 13.6666 16 13.3686 16 13V3.66665C16 1.82865 14.5047 0.333313 12.6667 0.333313ZM3.33333 1.66665H12.6667C13.7693 1.66665 14.6667 2.56398 14.6667 3.66665V7.66665H13.3333C13.3333 6.19598 12.1373 4.99998 10.6667 4.99998H10C9.204 4.99998 8.48933 5.35065 8 5.90465C7.51067 5.34998 6.796 4.99998 6 4.99998H5.33333C3.86267 4.99998 2.66667 6.19598 2.66667 7.66665H1.33333V3.66665C1.33333 2.56398 2.23067 1.66665 3.33333 1.66665ZM8.66667 7.66665C8.66667 6.93131 9.26467 6.33331 10 6.33331H10.6667C11.402 6.33331 12 6.93131 12 7.66665H8.66667ZM4 7.66665C4 6.93131 4.598 6.33331 5.33333 6.33331H6C6.73533 6.33331 7.33333 6.93131 7.33333 7.66665H4ZM1.33333 10.3333V8.99998H14.6667V10.3333H1.33333Z"
    fill="#5B4DFF" />
</svg>