<svg width="25" height="24" viewBox="0 0 25 24" fill="none" xmlns="http://www.w3.org/2000/svg">
  <g clip-path="url(#clip0_291_3128)">
    <path
      d="M1.82719 12.4001L5.38719 15.0001L4.03519 19.1871C3.8167 19.8365 3.81394 20.5391 4.0273 21.1902C4.24067 21.8413 4.65874 22.406 5.21919 22.8001C5.77005 23.2069 6.43759 23.4248 7.12235 23.4214C7.80711 23.418 8.47244 23.1934 9.01919 22.7811L12.5002 20.2191L15.9822 22.7781C16.532 23.1826 17.196 23.4023 17.8786 23.4056C18.5611 23.4089 19.2272 23.1957 19.781 22.7966C20.3347 22.3976 20.7477 21.8332 20.9605 21.1846C21.1733 20.536 21.1749 19.8367 20.9652 19.1871L19.6132 15.0001L23.1732 12.4001C23.7223 11.9986 24.1306 11.4339 24.3395 10.7865C24.5485 10.1392 24.5476 9.44232 24.3369 8.79553C24.1262 8.14873 23.7164 7.58506 23.1662 7.18504C22.616 6.78502 21.9535 6.56911 21.2732 6.56814H16.9002L15.5732 2.43214C15.3645 1.7811 14.9545 1.21315 14.4022 0.810203C13.8499 0.407254 13.1839 0.190125 12.5002 0.190125C11.8165 0.190125 11.1505 0.407254 10.5982 0.810203C10.0459 1.21315 9.63587 1.7811 9.42719 2.43214L8.10019 6.56814H3.73119C3.05094 6.56911 2.38838 6.78502 1.83817 7.18504C1.28796 7.58506 0.878234 8.14873 0.667514 8.79553C0.456795 9.44232 0.455862 10.1392 0.66485 10.7865C0.873837 11.4339 1.28205 11.9986 1.83119 12.4001H1.82719Z"
      fill="white" />
  </g>
  <defs>
    <clipPath id="clip0_291_3128">
      <rect width="24" height="24" fill="white" transform="translate(0.5 0.00012207)" />
    </clipPath>
  </defs>
</svg>