<svg width="16" height="16" viewBox="0 0 16 17" fill="none" xmlns="http://www.w3.org/2000/svg">
  <path
    d="M8 0.50003C7.03551 0.497527 6.08018 0.68705 5.18969 1.05755C4.29921 1.42805 3.49139 1.97212 2.81333 2.65803C1.43635 4.04854 0.666227 5.92788 0.671474 7.88481C0.676722 9.84174 1.45691 11.7169 2.84133 13.1L5.33333 15.406C6.04136 16.1035 6.99425 16.4962 7.98812 16.5001C8.98199 16.5039 9.9379 16.1187 10.6513 15.4267L13.1893 13.0694C14.562 11.6846 15.3321 9.81379 15.3321 7.86403C15.3321 5.91427 14.562 4.04343 13.1893 2.6587C12.511 1.97234 11.7028 1.42797 10.8118 1.05734C9.92084 0.686716 8.96498 0.497259 8 0.50003ZM11.8 11.6334L9.26666 13.984C8.92183 14.3136 8.46212 14.4958 7.98514 14.4919C7.50816 14.4881 7.05146 14.2985 6.712 13.9634L4.23066 11.6574C3.23007 10.6482 2.66865 9.28453 2.66865 7.86336C2.66865 6.4422 3.23007 5.07857 4.23066 4.06936C4.72436 3.57206 5.31159 3.17736 5.95851 2.90802C6.60542 2.63867 7.29925 2.50001 8 2.50001C8.70075 2.50001 9.39457 2.63867 10.0415 2.90802C10.6884 3.17736 11.2756 3.57206 11.7693 4.06936C12.7684 5.07266 13.3318 6.42922 13.3375 7.84507C13.3433 9.26092 12.7909 10.622 11.8 11.6334ZM11.3333 7.25203V9.83336C11.3333 10.0102 11.2631 10.1797 11.1381 10.3048C11.013 10.4298 10.8435 10.5 10.6667 10.5H10C9.82319 10.5 9.65362 10.4298 9.52859 10.3048C9.40357 10.1797 9.33333 10.0102 9.33333 9.83336V8.50003C9.33333 8.32322 9.26309 8.15365 9.13807 8.02863C9.01304 7.9036 8.84348 7.83336 8.66666 7.83336H7.33333C7.15652 7.83336 6.98695 7.9036 6.86193 8.02863C6.7369 8.15365 6.66666 8.32322 6.66666 8.50003V9.83336C6.66666 10.0102 6.59643 10.1797 6.4714 10.3048C6.34638 10.4298 6.17681 10.5 6 10.5H5.33333C5.15652 10.5 4.98695 10.4298 4.86193 10.3048C4.7369 10.1797 4.66666 10.0102 4.66666 9.83336V7.25203C4.6667 7.03673 4.71886 6.82464 4.81871 6.6339C4.91855 6.44315 5.0631 6.27942 5.24 6.1567L7.24 4.7687C7.46319 4.61386 7.72835 4.53089 8 4.53089C8.27164 4.53089 8.5368 4.61386 8.76 4.7687L10.76 6.1567C10.9369 6.27942 11.0814 6.44315 11.1813 6.6339C11.2811 6.82464 11.3333 7.03673 11.3333 7.25203Z"
    fill="#5B4DFF" />
</svg>