     <svg
                      width="24"
                      height="16"
                      viewBox="0 0 33 32"
                      fill="none"
                      xmlns="http://www.w3.org/2000/svg"
                    >
                      <path
                        d="M31.1667 14.6668H17.8333V1.33346C17.8333 0.979833 17.6929 0.640695 17.4428 0.390646C17.1928 0.140598 16.8536 0.00012207 16.5 0.00012207V0.00012207C16.1464 0.00012207 15.8072 0.140598 15.5572 0.390646C15.3071 0.640695 15.1667 0.979833 15.1667 1.33346V14.6668H1.83333C1.47971 14.6668 1.14057 14.8073 0.890524 15.0573C0.640476 15.3074 0.5 15.6465 0.5 16.0001H0.5C0.5 16.3537 0.640476 16.6929 0.890524 16.9429C1.14057 17.193 1.47971 17.3335 1.83333 17.3335H15.1667V30.6668C15.1667 31.0204 15.3071 31.3596 15.5572 31.6096C15.8072 31.8596 16.1464 32.0001 16.5 32.0001C16.8536 32.0001 17.1928 31.8596 17.4428 31.6096C17.6929 31.3596 17.8333 31.0204 17.8333 30.6668V17.3335H31.1667C31.5203 17.3335 31.8594 17.193 32.1095 16.9429C32.3595 16.6929 32.5 16.3537 32.5 16.0001C32.5 15.6465 32.3595 15.3074 32.1095 15.0573C31.8594 14.8073 31.5203 14.6668 31.1667 14.6668Z"
                        fill="#5B4DFF"
                      />
                    </svg>