<svg width="18" height="18" viewBox="0 0 18 18" fill="none" xmlns="http://www.w3.org/2000/svg">
<path d="M17.3084 14.2751C17.3084 14.5751 17.2417 14.8834 17.1 15.1834C16.9584 15.4834 16.775 15.7667 16.5334 16.0334C16.125 16.4834 15.675 16.8084 15.1667 17.0167C14.6667 17.2251 14.125 17.3334 13.5417 17.3334C12.6917 17.3334 11.7834 17.1334 10.825 16.7251C9.86669 16.3167 8.90835 15.7667 7.95835 15.0751C7.00002 14.3751 6.09169 13.6001 5.22502 12.7417C4.36669 11.8751 3.59169 10.9667 2.90002 10.0167C2.21669 9.06675 1.66669 8.11675 1.26669 7.17508C0.866687 6.22508 0.666687 5.31675 0.666687 4.45008C0.666687 3.88341 0.766687 3.34175 0.966687 2.84175C1.16669 2.33341 1.48335 1.86675 1.92502 1.45008C2.45835 0.925081 3.04169 0.666748 3.65835 0.666748C3.89169 0.666748 4.12502 0.716748 4.33335 0.816748C4.55002 0.916748 4.74169 1.06675 4.89169 1.28341L6.82502 4.00842C6.97502 4.21675 7.08335 4.40841 7.15835 4.59175C7.23335 4.76675 7.27502 4.94175 7.27502 5.10008C7.27502 5.30008 7.21669 5.50008 7.10002 5.69175C6.99169 5.88341 6.83335 6.08341 6.63335 6.28341L6.00002 6.94175C5.90835 7.03341 5.86669 7.14175 5.86669 7.27508C5.86669 7.34175 5.87502 7.40008 5.89169 7.46675C5.91669 7.53341 5.94169 7.58341 5.95835 7.63341C6.10835 7.90841 6.36669 8.26675 6.73335 8.70008C7.10835 9.13342 7.50835 9.57508 7.94169 10.0167C8.39169 10.4584 8.82502 10.8667 9.26669 11.2417C9.70002 11.6084 10.0584 11.8584 10.3417 12.0084C10.3834 12.0251 10.4334 12.0501 10.4917 12.0751C10.5584 12.1001 10.625 12.1084 10.7 12.1084C10.8417 12.1084 10.95 12.0584 11.0417 11.9667L11.675 11.3417C11.8834 11.1334 12.0834 10.9751 12.275 10.8751C12.4667 10.7584 12.6584 10.7001 12.8667 10.7001C13.025 10.7001 13.1917 10.7334 13.375 10.8084C13.5584 10.8834 13.75 10.9917 13.9584 11.1334L16.7167 13.0917C16.9334 13.2417 17.0834 13.4167 17.175 13.6251C17.2584 13.8334 17.3084 14.0417 17.3084 14.2751Z" stroke="#5B4DFF" stroke-width="1.2" stroke-miterlimit="10"/>
<path d="M14.4167 6.50016C14.4167 6.00016 14.0251 5.2335 13.4417 4.6085C12.9084 4.0335 12.2001 3.5835 11.5001 3.5835" stroke="#5B4DFF" stroke-width="1.2" stroke-linecap="round" stroke-linejoin="round"/>
<path d="M17.3334 6.50008C17.3334 3.27508 14.7251 0.666748 11.5001 0.666748" stroke="#5B4DFF" stroke-width="1.2" stroke-linecap="round" stroke-linejoin="round"/>
</svg>
