<svg width="33" height="32" viewBox="0 0 33 32" fill="none" xmlns="http://www.w3.org/2000/svg">
  <path
    d="M16.5 4C14.9 4 13.3 4.8 12.5 6.26667C11.7016 6.06226 10.864 6.06686 10.0679 6.28004C9.2718 6.49321 8.544 6.90777 7.95458 7.48379C7.36516 8.05981 6.93399 8.77789 6.70257 9.56888C6.47116 10.3599 6.4473 11.1971 6.6333 12C5.29997 12.8 4.36664 14.4 4.36664 16C4.36664 17.6 5.29997 19.2 6.6333 20C6.2333 21.6 6.6333 23.3333 7.96664 24.5333C9.0333 25.6 10.7666 26.1333 12.3666 25.8667C13.1666 27.2 14.7666 28 16.3666 28C17.9666 28 19.5666 27.2 20.3666 25.7333C21.9666 26.1333 23.7 25.7333 24.9 24.4C25.9666 23.3333 26.5 21.7333 26.2333 20C27.5666 19.2 28.3666 17.6 28.3666 16C28.3666 14.4 27.5666 12.8 26.1 12C26.5 10.4 26.1 8.66667 24.7666 7.46667C24.1966 6.9039 23.4981 6.48841 22.7315 6.2561C21.9648 6.0238 21.1532 5.98166 20.3666 6.13333C19.5666 4.8 17.9666 4 16.3666 4H16.5Z"
    stroke="#5B4DFF" stroke-width="2" stroke-linecap="round" stroke-linejoin="round" />
  <path d="M12.5 16L15.1667 18.6667L20.5 13.3333" stroke="#5B4DFF" stroke-width="2" stroke-linecap="round"
    stroke-linejoin="round" />
</svg>