<svg width="17" height="16" viewBox="0 0 17 16" fill="none" xmlns="http://www.w3.org/2000/svg">
<path d="M13.9998 9.33333H7.33317V2.66667C7.33317 1.196 6.13717 0 4.6665 0H3.33317C1.8625 0 0.666504 1.196 0.666504 2.66667V12.6667C0.666504 14.5047 2.16184 16 3.99984 16H13.9998C15.4705 16 16.6665 14.804 16.6665 13.3333V12C16.6665 10.5293 15.4705 9.33333 13.9998 9.33333ZM15.3332 13.3333C15.3332 14.0687 14.7352 14.6667 13.9998 14.6667H3.99984C2.89717 14.6667 1.99984 13.7693 1.99984 12.6667V2.66667C1.99984 1.93133 2.59784 1.33333 3.33317 1.33333H4.6665C5.40184 1.33333 5.99984 1.93133 5.99984 2.66667V4H4.6665C4.2985 4 3.99984 4.298 3.99984 4.66667C3.99984 5.03533 4.2985 5.33333 4.6665 5.33333H5.99984V6.66667H4.6665C4.2985 6.66667 3.99984 6.96467 3.99984 7.33333C3.99984 7.702 4.2985 8 4.6665 8H5.99984V9.33333H4.6665C4.2985 9.33333 3.99984 9.63133 3.99984 10C3.99984 10.3687 4.2985 10.6667 4.6665 10.6667H5.99984V12C5.99984 12.3687 6.2985 12.6667 6.6665 12.6667C7.0345 12.6667 7.33317 12.3687 7.33317 12V10.6667H8.6665V12C8.6665 12.3687 8.96517 12.6667 9.33317 12.6667C9.70117 12.6667 9.99984 12.3687 9.99984 12V10.6667H11.3332V12C11.3332 12.3687 11.6312 12.6667 11.9998 12.6667C12.3685 12.6667 12.6665 12.3687 12.6665 12V10.6667H13.9998C14.7352 10.6667 15.3332 11.2647 15.3332 12V13.3333Z" fill="#5B4DFF"/>
</svg>
