<svg width="104" height="33" viewBox="0 0 104 33" fill="none" xmlns="http://www.w3.org/2000/svg">
  <g clip-path="url(#clip0_1234_1683)">
    <path
      d="M26.6324 25.8352L27.9642 17.79C28.1562 16.4116 27.5563 14.5691 26.6324 13.6971L18.3177 5.90505C17.0339 4.69546 14.9582 4.69546 13.6864 5.89099L5.37163 13.6971C4.43577 14.5691 3.83586 16.4116 4.03983 17.79L5.80354 27.2417C6.09149 29.2389 7.67525 28.9857 9.40299 28.9857H19.0015M13.3333 28.9961L18 24.3294M18 28.9961L20.6667 31.6628M17.3333 28.9961H24"
      stroke="#5B4DFF" stroke-width="1.5" stroke-linecap="round" stroke-linejoin="round" />
  </g>
  <path
    d="M37.44 24.9961V10.0961H40.16V16.5961H46.5V10.0961H49.24V24.9961H46.5V18.9961H40.16V24.9961H37.44ZM57.048 25.2361C55.928 25.2361 54.948 24.9828 54.108 24.4761C53.268 23.9694 52.6146 23.2828 52.148 22.4161C51.6813 21.5494 51.448 20.5894 51.448 19.5361C51.448 18.4428 51.6813 17.4761 52.148 16.6361C52.628 15.7828 53.2746 15.1094 54.088 14.6161C54.9146 14.1228 55.8346 13.8761 56.848 13.8761C57.7013 13.8761 58.448 14.0161 59.088 14.2961C59.7413 14.5761 60.2946 14.9628 60.748 15.4561C61.2013 15.9494 61.548 16.5161 61.788 17.1561C62.028 17.7828 62.148 18.4628 62.148 19.1961C62.148 19.3828 62.1346 19.5761 62.108 19.7761C62.0946 19.9761 62.0613 20.1494 62.008 20.2961H53.608V18.2961H60.528L59.288 19.2361C59.408 18.6228 59.3746 18.0761 59.188 17.5961C59.0146 17.1161 58.7213 16.7361 58.308 16.4561C57.908 16.1761 57.4213 16.0361 56.848 16.0361C56.3013 16.0361 55.8146 16.1761 55.388 16.4561C54.9613 16.7228 54.6346 17.1228 54.408 17.6561C54.1946 18.1761 54.1146 18.8094 54.168 19.5561C54.1146 20.2228 54.2013 20.8161 54.428 21.3361C54.668 21.8428 55.0146 22.2361 55.468 22.5161C55.9346 22.7961 56.468 22.9361 57.068 22.9361C57.668 22.9361 58.1746 22.8094 58.588 22.5561C59.0146 22.3028 59.348 21.9628 59.588 21.5361L61.708 22.5761C61.4946 23.0961 61.1613 23.5561 60.708 23.9561C60.2546 24.3561 59.7146 24.6694 59.088 24.8961C58.4746 25.1228 57.7946 25.2361 57.048 25.2361ZM52.908 12.1961L55.248 8.89609H58.348L60.708 12.1961H58.108L56.808 10.3961L55.508 12.1961H52.908ZM64.1341 24.9961V9.85609H66.7541V24.9961H64.1341ZM72.4731 25.2361C71.7131 25.2361 71.0531 25.1094 70.4931 24.8561C69.9331 24.6028 69.4998 24.2428 69.1931 23.7761C68.8865 23.2961 68.7331 22.7428 68.7331 22.1161C68.7331 21.5161 68.8665 20.9828 69.1331 20.5161C69.3998 20.0361 69.8131 19.6361 70.3731 19.3161C70.9331 18.9961 71.6398 18.7694 72.4931 18.6361L76.0531 18.0561V20.0561L72.9931 20.5761C72.4731 20.6694 72.0865 20.8361 71.8331 21.0761C71.5798 21.3161 71.4531 21.6294 71.4531 22.0161C71.4531 22.3894 71.5931 22.6894 71.8731 22.9161C72.1665 23.1294 72.5265 23.2361 72.9531 23.2361C73.4998 23.2361 73.9798 23.1228 74.3931 22.8961C74.8198 22.6561 75.1465 22.3294 75.3731 21.9161C75.6131 21.5028 75.7331 21.0494 75.7331 20.5561V17.7561C75.7331 17.2894 75.5465 16.9028 75.1731 16.5961C74.8131 16.2761 74.3331 16.1161 73.7331 16.1161C73.1731 16.1161 72.6731 16.2694 72.2331 16.5761C71.8065 16.8694 71.4931 17.2628 71.2931 17.7561L69.1531 16.7161C69.3665 16.1428 69.6998 15.6494 70.1531 15.2361C70.6198 14.8094 71.1665 14.4761 71.7931 14.2361C72.4198 13.9961 73.0998 13.8761 73.8331 13.8761C74.7265 13.8761 75.5131 14.0428 76.1931 14.3761C76.8731 14.6961 77.3998 15.1494 77.7731 15.7361C78.1598 16.3094 78.3531 16.9828 78.3531 17.7561V24.9961H75.8731V23.1361L76.4331 23.0961C76.1531 23.5628 75.8198 23.9561 75.4331 24.2761C75.0465 24.5828 74.6065 24.8228 74.1131 24.9961C73.6198 25.1561 73.0731 25.2361 72.4731 25.2361ZM80.7747 24.9961V14.1161H83.2347V16.2561L83.0347 15.8761C83.288 15.2228 83.7014 14.7294 84.2747 14.3961C84.8614 14.0494 85.5414 13.8761 86.3147 13.8761C87.1147 13.8761 87.8214 14.0494 88.4347 14.3961C89.0614 14.7428 89.548 15.2294 89.8947 15.8561C90.2414 16.4694 90.4147 17.1828 90.4147 17.9961V24.9961H87.7947V18.6161C87.7947 18.1361 87.7014 17.7228 87.5147 17.3761C87.328 17.0294 87.068 16.7628 86.7347 16.5761C86.4147 16.3761 86.0347 16.2761 85.5947 16.2761C85.168 16.2761 84.788 16.3761 84.4547 16.5761C84.1214 16.7628 83.8614 17.0294 83.6747 17.3761C83.488 17.7228 83.3947 18.1361 83.3947 18.6161V24.9961H80.7747ZM97.7902 25.2361C96.6702 25.2361 95.6902 24.9828 94.8502 24.4761C94.0102 23.9694 93.3568 23.2828 92.8902 22.4161C92.4235 21.5494 92.1902 20.5894 92.1902 19.5361C92.1902 18.4428 92.4235 17.4761 92.8902 16.6361C93.3702 15.7828 94.0168 15.1094 94.8302 14.6161C95.6568 14.1228 96.5768 13.8761 97.5902 13.8761C98.4435 13.8761 99.1902 14.0161 99.8302 14.2961C100.483 14.5761 101.037 14.9628 101.49 15.4561C101.943 15.9494 102.29 16.5161 102.53 17.1561C102.77 17.7828 102.89 18.4628 102.89 19.1961C102.89 19.3828 102.877 19.5761 102.85 19.7761C102.837 19.9761 102.803 20.1494 102.75 20.2961H94.3502V18.2961H101.27L100.03 19.2361C100.15 18.6228 100.117 18.0761 99.9302 17.5961C99.7568 17.1161 99.4635 16.7361 99.0502 16.4561C98.6502 16.1761 98.1635 16.0361 97.5902 16.0361C97.0435 16.0361 96.5568 16.1761 96.1302 16.4561C95.7035 16.7228 95.3768 17.1228 95.1502 17.6561C94.9368 18.1761 94.8568 18.8094 94.9102 19.5561C94.8568 20.2228 94.9435 20.8161 95.1702 21.3361C95.4102 21.8428 95.7568 22.2361 96.2102 22.5161C96.6768 22.7961 97.2102 22.9361 97.8102 22.9361C98.4102 22.9361 98.9168 22.8094 99.3302 22.5561C99.7568 22.3028 100.09 21.9628 100.33 21.5361L102.45 22.5761C102.237 23.0961 101.903 23.5561 101.45 23.9561C100.997 24.3561 100.457 24.6694 99.8302 24.8961C99.2168 25.1228 98.5368 25.2361 97.7902 25.2361Z"
    fill="#5B4DFF" />
  <defs>
    <clipPath id="clip0_1234_1683">
      <rect width="32" height="32" fill="white" transform="translate(0 0.996094)" />
    </clipPath>
  </defs>
</svg>